<svg width="500" height="408" viewBox="0 0 500 408" fill="none" xmlns="http://www.w3.org/2000/svg">
<path d="M191.585 251.315C195.015 252.972 198.942 253.27 202.581 252.149C206.221 251.028 209.305 248.571 211.219 245.268C218.717 232.26 228.407 209.835 225.463 184.232L269.613 141.561C273.955 147.13 303.195 161.988 303.195 161.988C303.195 161.988 406.332 287.79 434.322 330.961C434.322 330.961 404.5 382.952 362.404 370.422C320.308 357.892 274.516 344.894 252.775 347.678C231.033 350.463 158.406 345.819 144.066 322.14C129.727 298.471 126.497 236.723 126.497 235.331V233.939C126.497 233.939 140.18 226.669 191.585 251.315ZM426.242 332.704C426.654 332.69 427.045 332.516 427.332 332.219C427.619 331.921 427.779 331.524 427.779 331.11C427.779 330.696 427.619 330.298 427.332 330C427.045 329.703 426.654 329.529 426.242 329.515C425.83 329.529 425.439 329.703 425.153 330.001C424.866 330.298 424.706 330.696 424.706 331.11C424.706 331.523 424.866 331.921 425.153 332.219C425.439 332.516 425.83 332.69 426.242 332.704V332.704ZM420.523 340.356C420.936 340.342 421.326 340.168 421.613 339.871C421.9 339.573 422.06 339.176 422.06 338.762C422.06 338.348 421.9 337.95 421.613 337.653C421.326 337.355 420.936 337.181 420.523 337.167C420.111 337.181 419.721 337.355 419.434 337.653C419.147 337.95 418.987 338.348 418.987 338.762C418.987 339.175 419.147 339.573 419.434 339.871C419.721 340.168 420.111 340.342 420.523 340.356V340.356ZM414.423 348.008C414.836 347.994 415.226 347.82 415.513 347.523C415.8 347.225 415.96 346.828 415.96 346.414C415.96 346 415.8 345.602 415.513 345.305C415.226 345.007 414.836 344.833 414.423 344.82C414.012 344.834 413.621 345.008 413.335 345.305C413.048 345.603 412.888 346 412.888 346.414C412.888 346.827 413.048 347.225 413.335 347.522C413.621 347.82 414.012 347.994 414.423 348.008V348.008ZM407.561 354.895C407.973 354.881 408.364 354.707 408.651 354.41C408.937 354.112 409.098 353.715 409.098 353.301C409.098 352.887 408.937 352.489 408.651 352.192C408.364 351.894 407.973 351.72 407.561 351.706C407.149 351.72 406.758 351.894 406.472 352.192C406.185 352.489 406.025 352.887 406.025 353.301C406.025 353.714 406.185 354.112 406.472 354.409C406.758 354.707 407.149 354.881 407.561 354.895L407.561 354.895ZM399.555 361.017C399.967 361.003 400.358 360.829 400.645 360.531C400.931 360.234 401.092 359.836 401.092 359.422C401.092 359.008 400.931 358.611 400.645 358.313C400.358 358.016 399.967 357.842 399.555 357.828C399.143 357.842 398.752 358.016 398.466 358.314C398.179 358.611 398.019 359.009 398.019 359.422C398.019 359.836 398.179 360.234 398.466 360.531C398.752 360.828 399.143 361.002 399.555 361.016L399.555 361.017ZM389.642 365.225C390.055 365.212 390.445 365.038 390.732 364.74C391.019 364.443 391.179 364.045 391.179 363.631C391.179 363.217 391.019 362.819 390.732 362.522C390.445 362.224 390.055 362.05 389.642 362.037C389.23 362.051 388.84 362.225 388.553 362.522C388.266 362.819 388.106 363.217 388.106 363.631C388.106 364.045 388.266 364.442 388.553 364.74C388.84 365.037 389.23 365.211 389.642 365.225L389.642 365.225ZM378.967 367.138C379.38 367.125 379.77 366.951 380.057 366.653C380.344 366.356 380.504 365.958 380.504 365.544C380.504 365.13 380.344 364.732 380.057 364.435C379.77 364.137 379.38 363.964 378.967 363.95C378.555 363.964 378.165 364.138 377.879 364.435C377.592 364.733 377.432 365.13 377.432 365.544C377.432 365.958 377.592 366.355 377.879 366.652C378.165 366.95 378.555 367.124 378.967 367.138L378.967 367.138ZM367.911 365.99C368.323 365.977 368.714 365.803 369.001 365.505C369.288 365.208 369.448 364.81 369.448 364.396C369.448 363.982 369.288 363.585 369.001 363.287C368.714 362.99 368.323 362.816 367.911 362.802C367.499 362.816 367.109 362.99 366.823 363.288C366.536 363.585 366.376 363.983 366.376 364.396C366.376 364.81 366.536 365.207 366.823 365.505C367.109 365.802 367.499 365.976 367.911 365.99L367.911 365.99ZM356.474 362.164C356.886 362.151 357.277 361.977 357.564 361.679C357.85 361.382 358.011 360.984 358.011 360.57C358.011 360.156 357.85 359.759 357.564 359.461C357.277 359.164 356.886 358.99 356.474 358.976C356.062 358.99 355.671 359.164 355.385 359.462C355.099 359.759 354.938 360.156 354.938 360.57C354.938 360.984 355.099 361.381 355.385 361.679C355.671 361.976 356.062 362.15 356.474 362.164L356.474 362.164ZM344.655 357.956C345.067 357.942 345.458 357.768 345.745 357.471C346.032 357.173 346.192 356.775 346.192 356.361C346.192 355.948 346.032 355.55 345.745 355.252C345.458 354.955 345.067 354.781 344.655 354.767C344.243 354.781 343.853 354.956 343.567 355.253C343.28 355.55 343.12 355.948 343.12 356.361C343.12 356.775 343.28 357.173 343.567 357.47C343.853 357.767 344.243 357.941 344.655 357.956L344.655 357.956ZM332.455 353.747C332.868 353.733 333.258 353.559 333.545 353.262C333.832 352.964 333.992 352.567 333.992 352.153C333.992 351.739 333.832 351.341 333.545 351.044C333.258 350.746 332.868 350.572 332.455 350.559C332.043 350.573 331.653 350.747 331.367 351.045C331.081 351.342 330.921 351.739 330.921 352.153C330.921 352.566 331.081 352.964 331.367 353.261C331.653 353.559 332.044 353.733 332.455 353.747L332.455 353.747ZM320.255 350.304C320.668 350.29 321.058 350.116 321.345 349.819C321.632 349.521 321.792 349.123 321.792 348.709C321.792 348.296 321.632 347.898 321.345 347.6C321.058 347.303 320.668 347.129 320.255 347.115C319.843 347.129 319.453 347.304 319.167 347.601C318.88 347.898 318.72 348.296 318.72 348.709C318.72 349.123 318.88 349.521 319.167 349.818C319.453 350.115 319.844 350.289 320.255 350.304L320.255 350.304ZM308.818 348.008C309.23 347.994 309.621 347.82 309.908 347.523C310.194 347.225 310.355 346.828 310.355 346.414C310.355 346 310.194 345.602 309.908 345.305C309.621 345.007 309.23 344.833 308.818 344.82C308.406 344.834 308.016 345.008 307.73 345.306C307.443 345.603 307.283 346 307.283 346.414C307.283 346.827 307.443 347.225 307.73 347.522C308.016 347.819 308.406 347.994 308.818 348.008L308.818 348.008ZM296.237 345.712C296.649 345.699 297.04 345.525 297.327 345.227C297.613 344.93 297.774 344.532 297.774 344.118C297.774 343.704 297.613 343.307 297.327 343.009C297.04 342.712 296.649 342.538 296.237 342.524C295.825 342.538 295.435 342.712 295.148 343.01C294.862 343.307 294.702 343.705 294.702 344.118C294.702 344.532 294.862 344.929 295.148 345.227C295.435 345.524 295.825 345.698 296.237 345.712L296.237 345.712ZM310.343 274.675C317.025 283.592 323.75 292.477 330.644 301.224C337.539 309.981 344.496 318.675 351.645 327.22L341.446 313.988L331.28 300.724C324.534 291.871 317.799 283.008 311.19 274.038C304.518 265.132 297.991 256.112 291.609 246.979C288.39 242.441 285.287 237.818 282.205 233.184L277.672 226.17L273.362 219.007C278.707 228.798 284.575 238.292 290.942 247.447C297.201 256.672 303.724 265.706 310.343 274.675ZM285.181 344.564C285.593 344.551 285.984 344.377 286.27 344.079C286.557 343.782 286.718 343.384 286.718 342.97C286.718 342.556 286.557 342.159 286.27 341.861C285.984 341.564 285.593 341.39 285.181 341.376C284.769 341.39 284.378 341.564 284.091 341.861C283.804 342.159 283.644 342.556 283.644 342.97C283.644 343.384 283.804 343.782 284.091 344.079C284.378 344.377 284.769 344.551 285.181 344.564ZM279.949 274.218C280.394 276.652 280.913 279.075 281.442 281.488C281.993 283.9 282.544 286.302 283.169 288.694L284.122 292.286C284.482 293.476 284.799 294.667 285.181 295.846C285.032 294.613 284.81 293.391 284.63 292.169L283.963 288.524C283.518 286.09 282.999 283.667 282.47 281.254C281.919 278.842 281.368 276.44 280.743 274.048C280.119 271.646 279.483 269.255 278.731 266.896C279.06 269.361 279.494 271.795 279.949 274.218ZM273.362 343.034C273.774 343.02 274.165 342.846 274.452 342.549C274.739 342.251 274.899 341.854 274.899 341.44C274.899 341.026 274.739 340.628 274.452 340.331C274.165 340.033 273.774 339.859 273.362 339.846C272.95 339.859 272.559 340.033 272.272 340.331C271.986 340.628 271.825 341.026 271.825 341.44C271.825 341.854 271.986 342.251 272.272 342.549C272.559 342.846 272.95 343.02 273.362 343.034H273.362ZM261.543 343.034C261.956 343.02 262.346 342.846 262.633 342.549C262.92 342.251 263.08 341.854 263.08 341.44C263.08 341.026 262.92 340.628 262.633 340.331C262.346 340.033 261.956 339.859 261.543 339.846C261.131 339.859 260.741 340.033 260.454 340.331C260.167 340.628 260.007 341.026 260.007 341.44C260.007 341.854 260.167 342.251 260.454 342.549C260.741 342.846 261.131 343.02 261.543 343.034ZM249.344 343.034C249.756 343.02 250.147 342.846 250.433 342.549C250.72 342.251 250.88 341.854 250.88 341.44C250.88 341.026 250.72 340.628 250.433 340.331C250.147 340.033 249.756 339.859 249.344 339.846C248.931 339.859 248.541 340.033 248.254 340.331C247.967 340.628 247.807 341.026 247.807 341.44C247.807 341.854 247.967 342.251 248.254 342.549C248.541 342.846 248.931 343.02 249.344 343.034ZM239.05 343.417C239.462 343.403 239.853 343.229 240.14 342.931C240.426 342.634 240.587 342.236 240.587 341.822C240.587 341.409 240.426 341.011 240.14 340.713C239.853 340.416 239.462 340.242 239.05 340.228C238.638 340.242 238.247 340.416 237.96 340.713C237.673 341.011 237.513 341.409 237.513 341.822C237.513 342.236 237.673 342.634 237.96 342.931C238.247 343.229 238.638 343.403 239.05 343.417ZM228.756 343.417C229.169 343.403 229.559 343.229 229.846 342.931C230.133 342.634 230.293 342.236 230.293 341.822C230.293 341.409 230.133 341.011 229.846 340.713C229.559 340.416 229.169 340.242 228.756 340.228C228.344 340.242 227.953 340.416 227.667 340.713C227.38 341.011 227.219 341.409 227.219 341.822C227.219 342.236 227.38 342.634 227.667 342.931C227.953 343.229 228.344 343.403 228.756 343.417ZM219.225 342.651C219.637 342.638 220.028 342.464 220.315 342.166C220.602 341.869 220.762 341.471 220.762 341.057C220.762 340.643 220.602 340.246 220.315 339.948C220.028 339.651 219.637 339.477 219.225 339.463C218.813 339.477 218.422 339.651 218.135 339.948C217.848 340.246 217.688 340.643 217.688 341.057C217.688 341.471 217.848 341.869 218.135 342.166C218.422 342.464 218.813 342.638 219.225 342.651ZM208.55 341.886C208.962 341.873 209.353 341.699 209.64 341.401C209.927 341.104 210.087 340.706 210.087 340.292C210.087 339.878 209.927 339.48 209.64 339.183C209.353 338.885 208.962 338.712 208.55 338.698C208.138 338.712 207.747 338.885 207.46 339.183C207.174 339.48 207.013 339.878 207.013 340.292C207.013 340.706 207.174 341.104 207.46 341.401C207.747 341.699 208.138 341.873 208.55 341.886ZM198.638 340.738C199.05 340.725 199.441 340.551 199.728 340.253C200.014 339.956 200.175 339.558 200.175 339.144C200.175 338.73 200.014 338.333 199.728 338.035C199.441 337.738 199.05 337.564 198.638 337.55C198.226 337.564 197.835 337.738 197.548 338.035C197.261 338.333 197.101 338.73 197.101 339.144C197.101 339.558 197.261 339.956 197.548 340.253C197.835 340.551 198.226 340.725 198.638 340.738ZM189.488 338.825C189.9 338.812 190.291 338.638 190.578 338.34C190.864 338.043 191.025 337.645 191.025 337.231C191.025 336.817 190.864 336.42 190.578 336.122C190.291 335.825 189.9 335.651 189.488 335.637C189.076 335.651 188.685 335.825 188.398 336.122C188.112 336.42 187.952 336.817 187.952 337.231C187.952 337.645 188.112 338.043 188.398 338.34C188.685 338.637 189.076 338.812 189.488 338.825V338.825ZM214.523 299.789C219.922 299.904 225.295 298.992 230.355 297.1C235.411 295.175 240.07 292.332 244.101 288.715C248.078 285.072 251.563 280.924 254.469 276.376C257.391 271.865 259.9 267.099 261.967 262.135C266.104 252.23 268.952 241.832 270.439 231.197C269.513 236.466 268.264 241.673 266.701 246.788C265.194 251.906 263.361 256.922 261.215 261.805C256.915 271.508 251.324 280.85 243.402 287.918C235.523 295.14 225.205 299.091 214.534 298.971C213.21 298.96 211.897 298.811 210.573 298.748C209.916 298.695 209.249 298.684 208.593 298.588L206.633 298.248C205.331 298.004 204.007 297.844 202.726 297.536L198.871 296.495C198.235 296.314 197.589 296.176 196.954 295.974L195.079 295.294L191.32 293.944C190.07 293.476 188.884 292.87 187.656 292.339L184.002 290.713C193.374 295.751 203.732 299.396 214.523 299.789V299.789ZM179.957 336.53C180.369 336.516 180.76 336.342 181.046 336.045C181.333 335.747 181.493 335.35 181.493 334.936C181.493 334.522 181.333 334.124 181.046 333.827C180.76 333.529 180.369 333.355 179.957 333.341C179.545 333.355 179.154 333.529 178.867 333.827C178.581 334.124 178.42 334.522 178.42 334.936C178.42 335.349 178.581 335.747 178.867 336.044C179.154 336.342 179.545 336.516 179.957 336.53V336.53ZM171.188 333.469C171.6 333.455 171.991 333.281 172.278 332.984C172.565 332.686 172.725 332.289 172.725 331.875C172.725 331.461 172.565 331.063 172.278 330.766C171.991 330.468 171.6 330.294 171.188 330.281C170.776 330.294 170.385 330.468 170.099 330.766C169.812 331.063 169.652 331.461 169.652 331.875C169.652 332.289 169.812 332.686 170.099 332.984C170.385 333.281 170.776 333.455 171.188 333.469V333.469ZM162.419 330.408C162.831 330.394 163.222 330.221 163.509 329.923C163.796 329.626 163.956 329.228 163.956 328.814C163.956 328.4 163.796 328.002 163.509 327.705C163.222 327.407 162.831 327.233 162.419 327.22C162.007 327.234 161.616 327.408 161.33 327.705C161.043 328.003 160.883 328.4 160.883 328.814C160.883 329.228 161.043 329.625 161.33 329.923C161.616 330.22 162.007 330.394 162.419 330.408V330.408ZM154.032 326.199C154.444 326.186 154.835 326.012 155.122 325.714C155.408 325.417 155.569 325.019 155.569 324.605C155.569 324.191 155.408 323.794 155.122 323.496C154.835 323.199 154.444 323.025 154.032 323.011C153.62 323.025 153.229 323.199 152.943 323.496C152.656 323.794 152.496 324.191 152.496 324.605C152.496 325.019 152.656 325.417 152.943 325.714C153.229 326.012 153.62 326.186 154.032 326.199V326.199ZM147.169 318.165C147.582 318.151 147.972 317.977 148.259 317.68C148.546 317.382 148.706 316.984 148.706 316.571C148.706 316.157 148.546 315.759 148.259 315.462C147.972 315.164 147.582 314.99 147.169 314.976C146.757 314.99 146.367 315.164 146.08 315.462C145.794 315.759 145.633 316.157 145.633 316.571C145.633 316.984 145.794 317.382 146.08 317.679C146.367 317.977 146.757 318.151 147.169 318.165V318.165ZM142.594 308.982C143.007 308.969 143.397 308.795 143.684 308.497C143.971 308.2 144.131 307.802 144.131 307.388C144.131 306.974 143.971 306.577 143.684 306.279C143.397 305.982 143.007 305.808 142.594 305.794C142.182 305.808 141.792 305.982 141.505 306.279C141.218 306.577 141.058 306.974 141.058 307.388C141.058 307.802 141.218 308.2 141.505 308.497C141.792 308.794 142.182 308.968 142.594 308.982V308.982ZM140.307 299.035C140.719 299.021 141.11 298.847 141.397 298.549C141.684 298.252 141.844 297.854 141.844 297.44C141.844 297.027 141.684 296.629 141.397 296.331C141.11 296.034 140.719 295.86 140.307 295.846C139.895 295.86 139.504 296.034 139.218 296.332C138.931 296.629 138.771 297.027 138.771 297.44C138.771 297.854 138.931 298.252 139.218 298.549C139.504 298.847 139.895 299.021 140.307 299.035V299.035ZM137.638 288.704C138.051 288.691 138.441 288.517 138.728 288.219C139.015 287.922 139.175 287.524 139.175 287.11C139.175 286.696 139.015 286.299 138.728 286.001C138.441 285.704 138.051 285.53 137.638 285.516C137.226 285.53 136.836 285.704 136.549 286.001C136.262 286.299 136.102 286.696 136.102 287.11C136.102 287.524 136.262 287.921 136.549 288.219C136.836 288.516 137.226 288.69 137.638 288.704V288.704ZM136.113 277.609C136.525 277.595 136.916 277.421 137.203 277.124C137.49 276.826 137.65 276.428 137.65 276.015C137.65 275.601 137.49 275.203 137.203 274.906C136.916 274.608 136.525 274.434 136.113 274.42C135.701 274.434 135.311 274.608 135.024 274.906C134.737 275.203 134.577 275.601 134.577 276.015C134.577 276.428 134.737 276.826 135.024 277.123C135.311 277.421 135.701 277.595 136.113 277.609V277.609ZM134.588 266.896C135.001 266.882 135.391 266.708 135.678 266.411C135.965 266.113 136.125 265.716 136.125 265.302C136.125 264.888 135.965 264.49 135.678 264.193C135.391 263.895 135.001 263.721 134.588 263.707C134.176 263.721 133.786 263.895 133.499 264.193C133.212 264.49 133.052 264.888 133.052 265.302C133.052 265.715 133.212 266.113 133.499 266.411C133.786 266.708 134.176 266.882 134.588 266.896V266.896ZM133.063 255.418C133.476 255.404 133.866 255.23 134.153 254.933C134.44 254.635 134.6 254.237 134.6 253.824C134.6 253.41 134.44 253.012 134.153 252.714C133.866 252.417 133.476 252.243 133.063 252.229C132.651 252.243 132.261 252.417 131.974 252.715C131.687 253.012 131.527 253.41 131.527 253.824C131.527 254.237 131.687 254.635 131.974 254.932C132.261 255.23 132.651 255.404 133.063 255.418V255.418ZM132.301 244.322C132.713 244.309 133.104 244.135 133.391 243.837C133.677 243.54 133.838 243.142 133.838 242.728C133.838 242.314 133.677 241.916 133.391 241.619C133.104 241.321 132.713 241.147 132.301 241.134C131.889 241.148 131.498 241.322 131.211 241.619C130.925 241.917 130.764 242.314 130.764 242.728C130.764 243.142 130.925 243.539 131.211 243.837C131.498 244.134 131.889 244.308 132.301 244.322V244.322Z" fill="black"/>
<path d="M356.174 81.163C355.899 81.7218 355.813 82.355 355.928 82.9674C355.98 83.2677 356.075 83.5587 356.212 83.8312C356.286 83.9778 356.378 84.1152 356.485 84.2403C356.546 84.3069 356.613 84.3675 356.685 84.4212C356.723 84.4554 356.77 84.4778 356.82 84.4855C356.87 84.4932 356.922 84.4859 356.968 84.4645C356.858 84.3518 356.93 84.2053 356.925 84.0654C356.93 83.9268 356.945 83.7825 356.94 83.645C356.944 83.3639 356.923 83.0829 356.877 82.8054C356.789 82.2059 356.547 81.6398 356.174 81.163Z" fill="black"/>
<path d="M143.615 188.207C143.203 188.193 142.813 188.018 142.526 187.721C142.24 187.424 142.08 187.026 142.08 186.613C142.08 186.199 142.24 185.802 142.526 185.504C142.813 185.207 143.203 185.033 143.615 185.019C144.027 185.033 144.417 185.207 144.703 185.504C144.989 185.802 145.149 186.199 145.149 186.613C145.149 187.026 144.989 187.424 144.703 187.721C144.417 188.018 144.027 188.193 143.615 188.207Z" fill="black"/>
<path d="M392.238 37.1146C391.083 38.2192 390.057 39.4521 389.18 40.7896C388.267 42.1034 387.509 43.5183 386.919 45.0062C388.075 43.903 389.102 42.6699 389.977 41.3312C390.888 40.0163 391.647 38.6017 392.238 37.1146Z" fill="black"/>
<path d="M384.535 77.6106C384.257 77.3869 383.91 77.2694 383.554 77.2793C383.414 77.2905 383.276 77.3232 383.145 77.3761C383.005 77.4263 382.878 77.5155 382.641 77.6106C382.663 77.7232 382.713 77.8286 382.785 77.9182C382.856 78.0077 382.949 78.0786 383.053 78.1251C383.225 78.2132 383.416 78.2543 383.609 78.2442C383.806 78.2336 383.997 78.169 384.16 78.0572C384.323 77.9455 384.453 77.791 384.535 77.6106Z" fill="black"/>
<path d="M379.287 76.3407C378.458 75.7117 377.563 75.1756 376.617 74.7423L375.263 74.1001C374.799 73.8993 374.364 73.6382 373.967 73.3233C374.079 73.8827 374.391 74.3818 374.844 74.7264C375.256 75.0769 375.71 75.3743 376.196 75.6117C377.156 76.0931 378.214 76.3427 379.287 76.3407Z" fill="black"/>
<path d="M376.02 91.8049C376.256 91.1626 376.345 90.475 376.28 89.7934C376.226 89.0992 376.04 88.4218 375.733 87.7974C375.424 87.1633 374.972 86.6096 374.414 86.1797C373.874 85.75 373.232 85.4689 372.551 85.364C373.029 85.7871 373.478 86.2422 373.895 86.7261C374.283 87.1842 374.612 87.69 374.873 88.2313C375.403 89.3695 375.789 90.5701 376.02 91.8049Z" fill="black"/>
<path d="M376.395 79.4162C376.021 79.4033 375.665 79.2449 375.405 78.9742C375.144 78.7036 374.998 78.3419 374.998 77.9655C374.998 77.5891 375.144 77.2274 375.405 76.9568C375.665 76.6861 376.021 76.5276 376.395 76.5148C376.77 76.5276 377.126 76.6861 377.386 76.9568C377.647 77.2274 377.792 77.5891 377.792 77.9655C377.792 78.3419 377.647 78.7036 377.386 78.9742C377.126 79.2449 376.77 79.4033 376.395 79.4162Z" fill="black"/>
<path d="M376.042 32.2403C375.702 33.685 375.54 35.1661 375.56 36.6504C375.538 38.1347 375.7 39.6161 376.042 41.0604C376.383 39.6161 376.545 38.1347 376.523 36.6504C376.543 35.1661 376.381 33.685 376.042 32.2403Z" fill="black"/>
<path d="M329.712 71.1301C330.507 72.6173 331.037 74.2321 331.279 75.9021C331.163 74.4679 330.831 73.0597 330.294 71.7253L329.712 71.1301Z" fill="black"/>
<path d="M363.559 42.4531C363.387 40.9318 363.035 39.4366 362.51 37.9988C362.025 36.5471 361.368 35.1592 360.552 33.8651C360.723 35.3866 361.075 36.8821 361.602 38.3193C362.088 39.7702 362.746 41.1579 363.559 42.4531Z" fill="black"/>
<path d="M357.544 87.8395C357.965 88.8991 358.473 89.9218 359.062 90.8971C359.663 91.875 360.358 92.7908 361.139 93.6311C361.928 94.4742 362.805 95.2304 363.754 95.8868C364.713 96.5704 365.767 97.1089 366.882 97.4852L366.929 97.4947C367.766 97.5625 368.599 97.7121 369.444 97.7078C370.296 97.7169 371.146 97.6379 371.982 97.4722C372.828 97.3163 373.654 97.0678 374.446 96.7313C375.229 96.3642 375.971 95.914 376.658 95.3885C378.018 94.3263 379.16 93.0093 380.021 91.5103C380.879 90.0158 381.506 88.3986 381.879 86.7146L380.785 87.2504C381.597 87.6154 382.488 87.7664 383.375 87.689C384.179 87.6505 384.978 87.5346 385.761 87.3429C385.859 87.3198 385.951 87.2776 386.032 87.2187C386.114 87.1598 386.183 87.0853 386.236 86.9996C386.289 86.9139 386.324 86.8185 386.34 86.7191C386.356 86.6196 386.353 86.5179 386.33 86.4198L386.305 86.3361L386.296 86.3105L384.508 81.3368L384.517 81.8812C385.392 79.001 385.691 75.9753 385.395 72.9786C385.267 71.5065 385.059 70.0424 384.772 68.5929C384.486 67.139 384.112 65.7041 383.65 64.2963C383.611 64.1774 383.546 64.0691 383.458 63.9797C383.371 63.8902 383.265 63.822 383.147 63.7802C383.03 63.7384 382.904 63.7242 382.78 63.7387C382.656 63.7531 382.537 63.7958 382.432 63.8635L382.42 63.8721C380.907 64.862 379.299 65.7934 377.687 66.6659C376.072 67.5356 374.407 68.3117 372.703 68.9902C371.02 69.6836 369.268 70.1924 367.476 70.5079C365.734 70.8786 363.925 70.7843 362.23 70.2343L362.425 70.3903C361.608 69.2296 360.48 68.3249 359.172 67.781C358.807 67.6479 358.415 67.6049 358.031 67.6557C357.646 67.7064 357.279 67.8493 356.961 68.0724C356.659 68.2904 356.392 68.5541 356.171 68.8541C355.994 69.1612 355.795 69.4581 355.644 69.7761C355.099 71.0611 354.913 72.4705 355.106 73.8534C355.153 74.5751 355.384 75.2724 355.777 75.8788C356.016 76.2118 356.369 76.4444 356.768 76.5318C357.149 76.5875 357.538 76.5497 357.9 76.4218L357.509 76.1087C357.091 78.991 355.844 81.6882 353.92 83.8695C352.972 84.9572 351.848 85.8771 350.595 86.5906C349.347 87.3096 348.003 87.8485 346.604 88.1917H346.805C345.561 87.8712 344.29 87.6688 343.008 87.5873C341.67 87.4461 340.319 87.6419 339.076 88.1569C338.384 88.4796 337.837 89.0509 337.544 89.7579C337.295 90.4489 337.239 91.1949 337.381 91.9156C337.524 93.0274 337.256 94.1533 336.628 95.0804C336.008 96.0274 335.129 96.7745 334.095 97.2317C333.627 97.4611 333.113 97.5819 332.591 97.5854C332.07 97.5888 331.554 97.4747 331.082 97.2515C330.164 96.6907 329.484 95.8108 329.171 94.7793C328.799 93.66 328.587 92.4936 328.539 91.3147L328.439 91.7689C329.768 89.2435 330.786 86.565 331.469 83.7927C332.215 80.993 332.447 78.0806 332.155 75.1976C331.847 72.1948 330.565 69.3765 328.506 67.1758C327.459 66.1407 326.454 65.251 325.381 64.3185C324.848 63.8603 324.309 63.4077 323.743 62.9652C323.462 62.7427 323.173 62.5253 322.862 62.3087C322.702 62.2009 322.555 62.0937 322.362 61.9848C322.263 61.9294 322.195 61.8806 322.069 61.8213C321.935 61.7609 321.799 61.7051 321.662 61.6547L321.974 63.4875C324.308 62.0536 326.944 61.1865 329.672 60.9552C332.43 60.7023 335.21 61.0778 337.803 62.0537L339.918 62.7796C340.657 62.995 341.408 63.1687 342.167 63.2997C343.714 63.5286 345.287 63.5011 346.824 63.2182C349.922 62.6009 352.651 60.7785 354.415 58.1488C356.008 55.887 358.298 54.213 360.931 53.3845C363.645 52.7348 366.501 53.0774 368.986 54.3508C370.256 55.0116 371.488 55.7444 372.675 56.5457C373.892 57.337 375.1 58.1406 376.292 58.9682C377.478 59.8021 378.659 60.6458 379.787 61.5541C380.35 62.0083 380.905 62.4731 381.436 62.9623C381.975 63.4092 382.429 63.951 382.775 64.5612L382.804 64.6256C382.813 64.6464 382.83 64.6629 382.851 64.6716C382.872 64.6803 382.895 64.6805 382.917 64.6722C382.938 64.6639 382.955 64.6478 382.964 64.6271C382.974 64.6064 382.975 64.5828 382.968 64.5612C382.669 63.8642 382.225 63.2393 381.666 62.7282C381.16 62.1951 380.624 61.6942 380.077 61.2085C378.984 60.2336 377.838 59.3258 376.687 58.4265C374.392 56.5903 371.973 54.9149 369.449 53.4121C366.751 51.9162 363.61 51.4364 360.591 52.0592C357.595 52.8797 354.965 54.6944 353.13 57.2074C352.356 58.3195 351.371 59.2673 350.231 59.9963C349.092 60.7254 347.82 61.2215 346.489 61.456C345.157 61.6665 343.799 61.6583 342.47 61.4317C341.806 61.2794 341.136 61.1471 340.485 60.9276L338.482 60.2155C335.611 59.0857 332.518 58.6412 329.446 58.9171C326.375 59.1929 323.41 60.1816 320.784 61.8051C320.658 61.8856 320.553 61.9953 320.478 62.125C320.403 62.2546 320.36 62.4005 320.352 62.5503C320.345 62.7001 320.374 62.8496 320.435 62.9861C320.497 63.1226 320.591 63.2422 320.709 63.3349L321.097 63.638C321.118 63.6547 321.141 63.6669 321.167 63.6742C321.199 63.6863 321.274 63.737 321.326 63.7657C321.436 63.8239 321.57 63.9208 321.697 64.0066C321.954 64.185 322.22 64.3829 322.482 64.5901C323.008 65 323.532 65.4375 324.05 65.8818C325.068 66.7652 326.159 67.6964 327.088 68.5989C328.865 70.4712 329.983 72.8762 330.27 75.4463C330.566 78.0984 330.381 80.7825 329.723 83.3683C329.099 85.9984 328.18 88.5487 326.982 90.9702L326.96 91.0145C326.897 91.1417 326.87 91.2835 326.882 91.4249C326.966 92.7624 327.24 94.081 327.695 95.3411C328.168 96.7255 329.136 97.8845 330.411 98.593C331.08 98.9037 331.811 99.0579 332.548 99.0441C333.285 99.0303 334.009 98.8488 334.666 98.5133C335.925 97.9105 336.982 96.9533 337.708 95.7582C338.46 94.5539 338.746 93.1139 338.511 91.7119C338.34 91.2205 338.351 90.6841 338.541 90.2C338.731 89.7158 339.087 89.3158 339.545 89.0726C340.624 88.6074 341.799 88.4132 342.968 88.5067C344.192 88.5496 345.41 88.707 346.604 88.977L346.636 88.984C346.692 88.9964 346.75 88.994 346.805 88.977C348.259 88.5663 349.653 87.9692 350.955 87.2005C352.261 86.4366 353.431 85.4581 354.415 84.3059C355.408 83.1679 356.224 81.8863 356.837 80.5042C357.453 79.1226 357.879 77.6635 358.103 76.1668C358.111 76.118 358.105 76.0682 358.088 76.022C358.071 75.9758 358.042 75.9348 358.005 75.9029C357.967 75.8709 357.923 75.8491 357.874 75.8394C357.826 75.8298 357.776 75.8326 357.73 75.8477L357.712 75.8535C357.469 75.9711 357.194 76.0003 356.932 75.9362C356.67 75.8722 356.439 75.7189 356.277 75.5025C355.963 74.9819 355.784 74.3911 355.756 73.7835C355.595 72.5228 355.779 71.242 356.287 70.0779C356.789 68.9185 357.814 68.0534 358.93 68.5116C360.054 69.0419 361.008 69.8749 361.687 70.9177C361.738 70.986 361.805 71.0398 361.883 71.0739C363.72 71.7562 365.704 71.9401 367.635 71.6073C369.521 71.3464 371.373 70.8802 373.158 70.2168C374.936 69.5802 376.675 68.8418 378.368 68.0052C380.068 67.1773 381.723 66.2578 383.324 65.2506L382.093 64.8265C382.498 66.1742 382.831 67.5422 383.093 68.925C383.362 70.3104 383.555 71.7094 383.673 73.1159C383.775 74.5113 383.787 75.9118 383.709 77.3087C383.605 78.6824 383.355 80.041 382.961 81.361L382.953 81.3885C382.902 81.558 382.908 81.7399 382.97 81.9057L384.825 86.8543L385.36 85.8222C384.685 85.9953 383.996 86.1046 383.301 86.1486C382.687 86.2156 382.067 86.1354 381.49 85.9147C381.307 85.8237 381.097 85.809 380.904 85.874C380.711 85.9389 380.552 86.0781 380.461 86.2609C380.432 86.3213 380.41 86.385 380.396 86.4506C380.071 87.9729 379.524 89.4386 378.772 90.8003C378.045 92.1729 377.06 93.391 375.871 94.387C375.275 94.8748 374.63 95.2978 373.946 95.649C373.244 95.9736 372.509 96.2204 371.754 96.3853C370.994 96.5633 370.217 96.662 369.436 96.6798C368.652 96.7113 367.862 96.5932 367.071 96.56L367.117 96.5694C366.083 96.2563 365.094 95.8062 364.178 95.2309C363.238 94.6513 362.363 93.9727 361.567 93.2067C360.768 92.4321 360.048 91.58 359.416 90.6629C358.774 89.7438 358.207 88.7739 357.722 87.7626C357.711 87.7392 357.692 87.7209 357.668 87.7117C357.644 87.7025 357.618 87.7032 357.594 87.7136C357.572 87.7247 357.554 87.7437 357.545 87.7669C357.536 87.7901 357.536 87.816 357.544 87.8395Z" fill="black"/>
<path d="M295.559 81.1628C295.559 81.1628 293.017 76.5716 286.081 73.3195C286.081 73.3195 282.374 45.4744 290.709 41.0638C290.709 41.0638 296.311 42.2222 321.378 62.649L323.337 64.6471C320.446 66.7301 303.576 78.8991 280.997 94.7665C287.532 88.6236 293.547 82.9802 295.559 81.1628ZM288.358 70.7475C288.77 70.7338 289.16 70.5598 289.447 70.2623C289.734 69.9649 289.894 69.5672 289.894 69.1533C289.894 68.7394 289.734 68.3417 289.447 68.0442C289.16 67.7468 288.77 67.5728 288.358 67.5591C287.945 67.5728 287.555 67.7468 287.268 68.0442C286.981 68.3417 286.821 68.7394 286.821 69.1533C286.821 69.5672 286.981 69.9649 287.268 70.2623C287.555 70.5598 287.945 70.7338 288.358 70.7475ZM288.485 61.9476C288.897 61.9339 289.288 61.7599 289.574 61.4625C289.861 61.165 290.021 60.7673 290.021 60.3534C290.021 59.9395 289.861 59.5418 289.574 59.2444C289.288 58.9469 288.897 58.7729 288.485 58.7592C288.072 58.7729 287.682 58.9469 287.395 59.2444C287.108 59.5418 286.948 59.9395 286.948 60.3534C286.948 60.7673 287.108 61.165 287.395 61.4625C287.682 61.7599 288.072 61.9339 288.485 61.9476ZM289.374 54.0405C289.786 54.0268 290.177 53.8529 290.464 53.5554C290.751 53.2579 290.911 52.8602 290.911 52.4463C290.911 52.0323 290.751 51.6346 290.464 51.3371C290.177 51.0397 289.786 50.8657 289.374 50.8521C288.962 50.8657 288.571 51.0397 288.284 51.3372C287.998 51.6346 287.837 52.0323 287.837 52.4463C287.837 52.8602 287.998 53.2579 288.284 53.5554C288.571 53.8529 288.962 54.0268 289.374 54.0405ZM291.407 43.3275C290.996 43.3422 290.606 43.5166 290.32 43.814C290.034 44.1113 289.874 44.5085 289.874 44.9217C289.874 45.3349 290.034 45.7321 290.32 46.0294C290.606 46.3268 290.996 46.5012 291.407 46.5159C291.819 46.5012 292.209 46.3268 292.495 46.0295C292.781 45.7321 292.94 45.335 292.94 44.9217C292.94 44.5085 292.781 44.1114 292.495 43.814C292.209 43.5166 291.819 43.3422 291.407 43.3275H291.407Z" fill="black"/>
<path d="M360.672 92.6865C359.015 92.751 357.377 93.058 355.808 93.5976C354.963 93.8655 354.191 94.326 353.553 94.9429C353.371 95.1233 353.228 95.3394 353.133 95.5778C353.08 95.706 353.043 95.8398 353.021 95.9767L352.989 96.2551C352.983 96.295 352.965 96.2718 353.037 96.2215C353.059 96.2008 353.087 96.1894 353.117 96.1895C353.112 96.1791 353.124 96.1882 353.106 96.1842C352.971 96.1361 352.843 96.0693 352.727 95.9857C352.1 95.5249 351.523 94.9987 351.007 94.4159C350.449 93.8407 349.935 93.2181 349.414 92.6013C348.902 91.9764 348.403 91.3386 347.932 90.68C347.432 90.0388 347.02 89.3342 346.704 88.5844C347.089 90.2062 347.807 91.7293 348.813 93.0556C349.733 94.4753 350.875 95.7368 352.195 96.7917C352.414 96.9428 352.657 97.0539 352.914 97.1198C353.011 97.136 353.11 97.1419 353.208 97.1376C353.337 97.1204 353.461 97.0753 353.572 97.0053C353.751 96.8697 353.871 96.6707 353.909 96.4489L353.937 96.2214L353.946 96.1174C353.955 96.0517 353.971 95.9873 353.995 95.9255C354.052 95.7823 354.135 95.6514 354.241 95.5402C354.769 95.0039 355.399 94.5797 356.094 94.2927C357.58 93.6499 359.11 93.1132 360.672 92.6865Z" fill="black"/>
<path d="M369.574 97.2036C367.319 99.4293 365.27 101.857 363.455 104.457C362.536 105.754 361.693 107.104 360.933 108.5C360.099 109.875 359.575 111.415 359.396 113.014C359.611 112.26 359.932 111.54 360.348 110.877C360.719 110.194 361.161 109.544 361.579 108.886C362.436 107.579 363.341 106.298 364.242 105.014C366.04 102.439 367.881 99.891 369.574 97.2036Z" fill="black"/>
<path d="M331.364 77.6131C331.385 84.6169 327.71 91.3657 327.71 91.3657C328.494 103.205 338.989 97.5511 337.94 91.8014C336.987 86.53 345.163 88.2198 346.519 88.5386C347.175 90.441 350.585 94.6178 351.983 96.0313C353.487 97.5405 353.466 96.1907 353.466 96.1907C353.466 96.1907 354.916 99.496 356.569 104.087C355.159 102.979 353.568 102.127 351.867 101.568C350.163 100.978 348.383 100.638 346.582 100.559C343.883 100.452 341.191 100.901 338.671 101.877C337.845 102.217 337.051 102.631 336.267 103.035C337.939 102.515 339.645 102.11 341.372 101.823C344.795 101.269 348.295 101.428 351.655 102.291C353.352 102.713 354.999 103.315 356.569 104.087C358.352 108.871 359.727 113.799 360.677 118.818C360.677 118.818 362.171 128.329 362.404 153.868L332.571 156.419L330.718 141.561C330.588 136.913 329.811 132.305 328.409 127.872C328.449 130.197 328.675 132.514 329.087 134.802C329.454 137.094 329.999 139.354 330.718 141.561C330.718 141.561 321.007 144.112 317.999 143.655C316.905 143.267 315.759 143.048 314.6 143.007C314.028 142.975 313.467 142.964 312.895 142.985C312.333 142.985 311.772 143.06 311.168 143.07C311.65 143.442 312.212 143.694 312.81 143.804C313.376 143.941 313.954 144.027 314.536 144.059C315.336 144.106 316.139 144.064 316.93 143.931C314.218 145.557 311.518 153.868 311.518 153.868C311.518 153.868 293.472 143.23 278.731 132.644C306.604 105.299 329.903 81.6517 331.364 77.6131ZM358.888 152.242C359.3 152.228 359.691 152.055 359.978 151.757C360.264 151.46 360.425 151.062 360.425 150.648C360.425 150.234 360.264 149.836 359.978 149.539C359.691 149.241 359.3 149.067 358.888 149.054C358.476 149.067 358.085 149.241 357.798 149.539C357.511 149.836 357.351 150.234 357.351 150.648C357.351 151.062 357.511 151.46 357.798 151.757C358.085 152.055 358.476 152.228 358.888 152.242ZM351.644 152.497C352.056 152.484 352.447 152.31 352.734 152.012C353.021 151.715 353.181 151.317 353.181 150.903C353.181 150.489 353.021 150.091 352.734 149.794C352.447 149.497 352.056 149.323 351.644 149.309C351.232 149.323 350.841 149.497 350.554 149.794C350.268 150.091 350.107 150.489 350.107 150.903C350.107 151.317 350.268 151.715 350.554 152.012C350.841 152.31 351.232 152.484 351.644 152.497ZM343.511 153.262C343.923 153.249 344.314 153.075 344.601 152.777C344.887 152.48 345.048 152.082 345.048 151.668C345.048 151.254 344.887 150.857 344.601 150.559C344.314 150.262 343.923 150.088 343.511 150.074C343.099 150.088 342.708 150.262 342.421 150.559C342.134 150.857 341.974 151.254 341.974 151.668C341.974 152.082 342.134 152.48 342.421 152.777C342.708 153.075 343.099 153.249 343.511 153.262ZM336.521 153.773C336.934 153.759 337.324 153.585 337.611 153.287C337.898 152.99 338.058 152.592 338.058 152.178C338.058 151.765 337.898 151.367 337.611 151.069C337.324 150.772 336.934 150.598 336.521 150.584C336.109 150.598 335.718 150.772 335.432 151.069C335.145 151.367 334.985 151.765 334.985 152.178C334.985 152.592 335.145 152.99 335.432 153.287C335.718 153.585 336.109 153.759 336.521 153.773ZM328.028 115.82C328.128 116.362 328.255 116.897 328.409 117.425C328.462 116.873 328.473 116.331 328.494 115.799C328.568 115.268 328.589 114.736 328.653 114.216C328.78 113.179 329.007 112.158 329.331 111.165C329.973 109.164 331.175 107.389 332.794 106.053C331.736 106.42 330.798 107.071 330.083 107.934C329.342 108.789 328.777 109.783 328.42 110.857C328.07 111.923 327.895 113.04 327.901 114.162C327.901 114.726 327.975 115.278 328.028 115.82V115.82ZM309.707 149.819C310.119 149.805 310.51 149.631 310.797 149.334C311.084 149.036 311.244 148.639 311.244 148.225C311.244 147.811 311.084 147.413 310.797 147.116C310.51 146.818 310.119 146.644 309.707 146.631C309.295 146.644 308.904 146.818 308.618 147.116C308.331 147.413 308.171 147.811 308.171 148.225C308.171 148.639 308.331 149.036 308.618 149.334C308.904 149.631 309.295 149.805 309.707 149.819V149.819ZM302.336 144.973C302.749 144.959 303.139 144.785 303.426 144.488C303.713 144.19 303.873 143.792 303.873 143.379C303.873 142.965 303.713 142.567 303.426 142.269C303.139 141.972 302.749 141.798 302.336 141.784C301.924 141.798 301.534 141.972 301.247 142.27C300.96 142.567 300.8 142.965 300.8 143.379C300.8 143.792 300.96 144.19 301.247 144.488C301.534 144.785 301.924 144.959 302.336 144.973L302.336 144.973ZM293.059 139.361C293.472 139.348 293.862 139.174 294.149 138.876C294.436 138.579 294.596 138.181 294.596 137.767C294.596 137.353 294.436 136.955 294.149 136.658C293.862 136.36 293.472 136.187 293.059 136.173C292.647 136.187 292.257 136.361 291.97 136.658C291.683 136.956 291.523 137.353 291.523 137.767C291.523 138.181 291.683 138.578 291.97 138.876C292.257 139.173 292.647 139.347 293.059 139.361V139.361ZM283.655 133.24C284.067 133.226 284.458 133.052 284.745 132.754C285.032 132.457 285.192 132.059 285.192 131.645C285.192 131.231 285.032 130.834 284.745 130.536C284.458 130.239 284.067 130.065 283.655 130.051C283.243 130.065 282.852 130.239 282.566 130.536C282.279 130.834 282.119 131.231 282.119 131.645C282.119 132.059 282.279 132.457 282.566 132.754C282.852 133.052 283.243 133.226 283.655 133.239V133.24Z" fill="black"/>
<path d="M289.057 42.3704C286.652 40.6827 283.928 39.5088 281.052 38.9216C278.087 38.3615 275.021 38.7163 272.26 39.9392C269.58 41.285 267.232 43.214 265.389 45.5856C263.481 47.8303 261.817 50.2183 260.165 52.599C256.888 57.3792 253.915 62.3627 251.07 67.4077C248.25 72.4683 245.494 77.5579 242.8 82.6766L242.82 82.6444L238.962 88.0234C237.687 89.8245 236.357 91.5859 235.053 93.366L235.593 93.2018C235.346 93.1261 235.085 93.113 234.833 93.1636C234.58 93.2142 234.344 93.3269 234.145 93.4917C233.815 93.7586 233.544 94.0926 233.351 94.4717C233.011 95.1509 232.771 95.8762 232.64 96.6247C232.377 98.0551 232.244 99.5067 232.244 100.961C232.179 102.47 232.397 103.978 232.887 105.406C232.96 105.605 233.053 105.795 233.165 105.974C233.273 106.178 233.408 106.366 233.569 106.531C233.745 106.74 233.962 106.911 234.206 107.035C234.45 107.159 234.715 107.233 234.988 107.253C235.509 107.273 236.023 107.129 236.458 106.842C236.809 106.603 237.132 106.325 237.422 106.014L236.033 105.69C236.214 106.33 236.496 106.936 236.87 107.485C237.068 107.826 237.335 108.122 237.654 108.354C237.973 108.585 238.336 108.747 238.721 108.829C239.106 108.911 239.504 108.911 239.889 108.829C240.274 108.748 240.637 108.586 240.956 108.355C241.236 108.164 241.504 107.962 241.754 107.753L242.428 107.088L241.07 107.064C241.428 107.479 241.85 107.835 242.319 108.117C242.822 108.429 243.392 108.614 243.981 108.659C244.609 108.7 245.235 108.544 245.77 108.211C246.248 107.918 246.669 107.541 247.015 107.1L246.036 107.435C248.508 108.081 251.031 108.516 253.576 108.737C254.934 108.873 256.305 108.784 257.635 108.474C258.022 108.368 258.394 108.215 258.745 108.019C259.099 107.79 259.415 107.507 259.683 107.181C260.158 106.618 260.537 105.98 260.804 105.292C261.64 102.737 261.728 99.9937 261.057 97.3894C260.919 96.2998 261.049 95.1928 261.437 94.1656C261.824 93.1383 262.457 92.2222 263.28 91.4976C267.065 88.2874 270.924 85.0905 274.687 81.8183C278.478 78.5698 282.24 75.2858 285.973 71.9661C285.991 71.9495 286.003 71.9264 286.005 71.9015C286.007 71.8767 285.999 71.852 285.983 71.8327C285.968 71.8134 285.945 71.8008 285.921 71.7977C285.896 71.7946 285.871 71.8011 285.851 71.8159C281.841 74.7934 277.867 77.8153 273.929 80.8819C269.958 83.9177 266.076 87.0205 262.132 90.125C261.04 91.0156 260.188 92.1667 259.655 93.473C259.134 94.7905 258.942 96.2158 259.096 97.6246L259.372 99.481C259.435 100.062 259.467 100.646 259.467 101.23C259.483 102.35 259.289 103.463 258.895 104.51C258.712 104.992 258.451 105.44 258.122 105.835C257.994 105.993 257.847 106.133 257.683 106.252C257.487 106.356 257.279 106.437 257.065 106.494C255.96 106.73 254.825 106.8 253.699 106.703C251.274 106.535 248.867 106.164 246.503 105.594C246.327 105.554 246.144 105.562 245.973 105.62C245.802 105.677 245.65 105.78 245.533 105.918L245.524 105.93C245.327 106.192 245.087 106.418 244.815 106.6C244.6 106.751 244.341 106.825 244.08 106.81C243.783 106.789 243.495 106.697 243.241 106.542C242.948 106.37 242.681 106.157 242.449 105.909C242.283 105.725 242.052 105.615 241.806 105.602C241.559 105.59 241.318 105.676 241.135 105.842C241.122 105.854 241.104 105.872 241.091 105.884L240.567 106.422C240.386 106.575 240.202 106.718 240.022 106.852C239.745 107.055 239.406 107.151 239.065 107.123C238.721 107.026 238.424 106.804 238.234 106.501C237.96 106.119 237.745 105.698 237.599 105.251L237.577 105.185C237.533 105.05 237.453 104.929 237.346 104.835C237.239 104.741 237.109 104.677 236.969 104.651C236.83 104.625 236.685 104.636 236.552 104.685C236.418 104.733 236.3 104.817 236.21 104.927C235.828 105.391 235.323 105.727 235.079 105.692C234.861 105.748 234.492 105.361 234.255 104.812C233.802 103.57 233.566 102.259 233.555 100.936C233.488 99.5629 233.546 98.1868 233.727 96.8244C233.806 96.173 233.981 95.5371 234.247 94.9377C234.483 94.3714 234.992 93.9834 235.263 94.0637L235.308 94.077C235.399 94.1037 235.495 94.1009 235.584 94.069C235.674 94.0371 235.75 93.9778 235.804 93.8994C237.043 92.0736 238.257 90.2292 239.526 88.4245L243.301 82.9861L243.321 82.9536C246.043 77.86 248.944 72.8625 252.062 68.0061C255.155 63.1333 258.398 58.367 261.599 53.5767C263.206 51.1891 264.796 48.7895 266.592 46.5966C268.279 44.3686 270.406 42.5129 272.839 41.145C275.337 39.8974 278.153 39.4362 280.917 39.8218C283.745 40.2049 286.474 41.126 288.957 42.5357C288.979 42.5474 289.004 42.5503 289.028 42.5438C289.052 42.5372 289.072 42.5218 289.085 42.5007C289.098 42.4795 289.102 42.4542 289.097 42.43C289.092 42.4058 289.078 42.3845 289.057 42.3705L289.057 42.3704Z" fill="black"/>
<path d="M275.671 62.2983C277.502 64.138 279.426 65.8173 281.285 67.5577C282.213 68.4254 283.145 69.2925 284.005 70.2142C284.929 71.0736 285.639 72.1385 286.079 73.3233C286.102 72.656 285.946 71.9947 285.628 71.4083C285.334 70.8156 284.983 70.2532 284.581 69.729C283.786 68.6937 282.902 67.7301 281.94 66.8489C280.045 65.0789 277.94 63.5504 275.671 62.2983Z" fill="black"/>
<path d="M424.076 145.158L418.431 146.553L424.235 146.208C424.305 146.204 424.373 146.186 424.436 146.156C424.499 146.125 424.555 146.082 424.601 146.03C424.648 145.978 424.683 145.917 424.706 145.85C424.729 145.784 424.739 145.714 424.734 145.644C424.73 145.574 424.712 145.506 424.682 145.443C424.651 145.38 424.609 145.323 424.557 145.277C424.504 145.23 424.444 145.194 424.378 145.171C424.312 145.148 424.242 145.139 424.172 145.143C424.14 145.145 424.108 145.15 424.076 145.158Z" fill="black"/>
<path d="M316.94 143.921C317.3 143.862 317.654 143.773 317.999 143.655C317.626 143.611 317.249 143.706 316.94 143.921Z" fill="white"/>
<path d="M257.631 92.9365C257.158 92.8446 256.671 92.8482 256.199 92.9471C255.728 93.046 255.28 93.2383 254.883 93.5126C254.476 93.8199 254.171 94.2431 254.007 94.7271C253.85 95.2031 253.775 95.7024 253.784 96.2037L253.789 96.1382C253.722 96.3498 253.608 96.543 253.454 96.7026C253.301 96.8623 253.113 96.9841 252.904 97.0585C252.435 97.1952 251.939 97.2135 251.46 97.1119C250.396 96.9744 249.305 96.8026 248.197 96.709C247.043 96.5603 245.87 96.6466 244.749 96.9626C244.414 97.0878 244.117 97.2957 243.883 97.567C243.763 97.7228 243.671 97.8985 243.61 98.0862C243.562 98.2666 243.54 98.4532 243.545 98.6401C243.596 99.3024 243.87 99.9274 244.324 100.412C245.158 101.221 246.151 101.846 247.241 102.246C248.272 102.657 249.333 102.988 250.415 103.236C250.947 103.375 251.5 103.465 251.976 103.633C252.471 103.81 252.963 104.035 253.453 104.264C254.432 104.731 255.379 105.276 256.33 105.818C255.473 105.13 254.576 104.495 253.643 103.915C253.174 103.613 252.681 103.35 252.17 103.128C251.627 102.899 251.103 102.783 250.589 102.61C249.563 102.289 248.556 101.909 247.574 101.472C246.623 101.079 245.755 100.507 245.017 99.7864C244.721 99.4662 244.538 99.0569 244.496 98.6217C244.476 98.2433 244.682 98.0439 245.101 97.8567C246.089 97.5881 247.118 97.5105 248.135 97.6278C249.206 97.6784 250.277 97.8191 251.383 97.9105C251.986 97.9896 252.599 97.9172 253.167 97.6999C253.468 97.5702 253.733 97.3703 253.941 97.1167C254.149 96.8631 254.293 96.5632 254.362 96.2422C254.366 96.2239 254.367 96.2052 254.366 96.1865L254.366 96.1763C254.329 95.7405 254.365 95.3016 254.473 94.8779C254.57 94.4555 254.79 94.0716 255.104 93.7748C255.814 93.19 256.714 92.8912 257.631 92.9365Z" fill="black"/>
<path d="M246.919 101.636L245.792 106.451C245.777 106.513 245.775 106.577 245.785 106.64C245.795 106.703 245.818 106.764 245.851 106.818C245.884 106.872 245.928 106.92 245.98 106.957C246.032 106.994 246.09 107.021 246.152 107.036C246.214 107.05 246.278 107.053 246.341 107.042C246.404 107.032 246.464 107.009 246.518 106.976C246.572 106.942 246.619 106.898 246.656 106.846C246.693 106.794 246.72 106.735 246.734 106.673C246.741 106.642 246.746 106.611 246.747 106.579L246.919 101.636Z" fill="black"/>
<path d="M360.576 154.013C360.443 157.522 360.372 161.032 360.276 164.542L360.275 164.561C360.273 164.638 360.296 164.714 360.34 164.776C360.384 164.839 360.447 164.886 360.52 164.909C362.384 165.434 364.318 165.664 366.252 165.591C368.152 165.604 370.037 165.452 371.919 165.276C375.669 164.861 379.393 164.241 383.074 163.417C386.744 162.573 390.393 161.645 394.007 160.604C395.808 160.064 397.623 159.565 399.413 158.992L404.771 157.233C404.963 157.17 405.126 157.039 405.229 156.864L405.233 156.858C407.932 152.288 410.566 147.679 413.188 143.063L413.101 143.179C413.739 142.545 414.464 142.003 415.252 141.571C416.05 141.128 416.91 140.806 417.802 140.618C418.694 140.42 419.613 140.372 420.52 140.477C421.438 140.578 422.338 140.802 423.197 141.143L423.118 141.099C423.376 141.334 423.575 141.628 423.699 141.955C423.847 142.325 423.939 142.715 423.973 143.112C424.048 143.945 423.986 144.786 423.789 145.599C423.768 145.695 423.785 145.794 423.835 145.878C423.886 145.961 423.967 146.022 424.06 146.047L424.074 146.051C424.623 146.208 425.129 146.487 425.555 146.868C425.989 147.255 426.334 147.731 426.569 148.264C426.793 148.814 426.926 149.397 426.965 149.991C426.985 150.291 426.968 150.596 426.972 150.898L426.874 151.81L426.87 151.847C426.863 151.909 426.878 151.972 426.913 152.025C427.349 152.824 428.057 153.438 428.907 153.757C429.026 153.791 429.149 153.81 429.272 153.814C429.421 153.821 429.423 153.837 429.509 153.841C429.658 153.895 429.795 153.979 429.912 154.088C430.18 154.345 430.393 154.654 430.536 154.997C431.12 156.469 431.179 158.098 430.704 159.608C430.691 159.652 430.688 159.698 430.694 159.743C430.791 160.365 430.944 160.978 431.15 161.573C431.343 162.216 431.701 162.798 432.188 163.26C432.338 163.382 432.508 163.478 432.69 163.541C432.867 163.585 433.159 163.616 433.136 163.615C433.31 163.729 433.44 163.9 433.506 164.098C433.71 164.633 433.838 165.195 433.888 165.766C434.012 166.942 433.972 168.13 433.77 169.295C433.681 169.857 433.517 170.405 433.282 170.924C433.181 171.143 433.037 171.34 432.858 171.502C432.649 171.647 432.421 171.762 432.18 171.843C431.061 172.16 429.903 172.315 428.74 172.305C427.552 172.329 426.355 172.273 425.161 172.18C422.771 171.991 420.388 171.638 418.023 171.21C417.867 171.181 417.706 171.211 417.571 171.292L417.545 171.308C409.262 176.288 400.673 180.739 391.832 184.635C387.403 186.544 382.917 188.324 378.342 189.797C373.798 191.329 369.145 192.51 364.422 193.332L360.878 193.796C360.291 193.887 359.697 193.932 359.103 193.931L357.326 193.988L355.548 194.054C354.959 194.063 354.395 194.006 353.818 193.968C350.928 193.656 348.16 192.632 345.76 190.987C343.36 189.342 341.402 187.127 340.061 184.539C339.036 182.393 338.264 180.135 337.761 177.809C337.187 175.464 336.732 173.091 336.398 170.699C335.728 165.892 335.357 161.048 335.286 156.195C335.286 156.17 335.275 156.146 335.258 156.128C335.24 156.11 335.216 156.1 335.191 156.1C335.166 156.099 335.141 156.109 335.123 156.126C335.105 156.143 335.094 156.167 335.093 156.192C334.87 161.069 334.996 165.956 335.472 170.815C335.723 173.253 336.097 175.677 336.593 178.077C336.841 179.28 337.129 180.475 337.458 181.663C337.784 182.878 338.22 184.061 338.76 185.197C339.882 187.481 341.444 189.52 343.354 191.196C345.265 192.872 347.487 194.153 349.893 194.963C351.099 195.371 352.342 195.66 353.604 195.824C354.233 195.883 354.879 195.957 355.5 195.962L357.356 195.929L359.213 195.888C359.831 195.894 360.449 195.853 361.061 195.766L364.731 195.323C369.573 194.539 374.341 193.345 378.983 191.753C383.612 190.2 388.156 188.406 392.599 186.377C401.483 182.368 410.065 177.715 418.277 172.457L417.799 172.555C420.216 172.925 422.65 173.173 425.092 173.299C426.315 173.352 427.543 173.372 428.777 173.312C430.04 173.286 431.292 173.076 432.495 172.689C432.826 172.566 433.136 172.394 433.414 172.178C433.685 171.931 433.901 171.628 434.047 171.291C434.3 170.695 434.471 170.067 434.555 169.424C434.727 168.184 434.74 166.926 434.593 165.683C434.53 165.041 434.376 164.412 434.136 163.815C434.067 163.626 433.962 163.453 433.825 163.307C433.688 163.161 433.523 163.044 433.34 162.963L432.89 162.893C432.787 162.856 432.69 162.801 432.605 162.731C431.88 161.856 431.433 160.783 431.321 159.651L431.312 159.785C431.812 158.129 431.725 156.351 431.064 154.753C430.887 154.339 430.63 153.964 430.309 153.648C430.128 153.475 429.911 153.343 429.674 153.261C429.354 153.193 429.221 153.223 429.065 153.167C428.381 152.876 427.818 152.359 427.47 151.701L427.509 151.915L427.628 150.941C427.63 150.611 427.653 150.281 427.634 149.95C427.6 149.277 427.457 148.614 427.21 147.988C426.943 147.355 426.542 146.788 426.036 146.324C425.524 145.851 424.908 145.505 424.238 145.315L424.522 145.766C424.743 144.875 424.833 143.957 424.788 143.04C424.762 142.561 424.667 142.09 424.504 141.639C424.336 141.137 424.035 140.689 423.633 140.344C423.615 140.33 423.596 140.318 423.574 140.309L423.553 140.301C422.625 139.893 421.646 139.612 420.643 139.465C419.629 139.313 418.597 139.33 417.589 139.516C416.578 139.691 415.598 140.019 414.684 140.486C413.754 140.953 412.897 141.553 412.14 142.268C412.115 142.291 412.094 142.318 412.076 142.347L412.052 142.384C409.259 146.898 406.477 151.419 403.76 155.978L404.222 155.603C400.666 156.755 397.12 157.934 393.544 159.011C389.969 160.094 386.364 161.063 382.74 161.949C379.103 162.758 375.46 163.557 371.776 164.068C369.934 164.303 368.085 164.514 366.237 164.563C365.312 164.606 364.389 164.591 363.473 164.544C362.579 164.515 361.692 164.391 360.825 164.174L361.069 164.542C360.973 161.032 360.902 157.522 360.769 154.013C360.768 153.988 360.757 153.964 360.739 153.947C360.721 153.929 360.697 153.92 360.672 153.92C360.647 153.92 360.623 153.929 360.605 153.947C360.587 153.964 360.577 153.988 360.576 154.013L360.576 154.013Z" fill="black"/>
<path d="M235.428 93.6327C235.663 93.7073 235.876 93.8416 236.045 94.0225C236.214 94.2035 236.333 94.425 236.392 94.6658C236.559 95.1368 236.668 95.626 236.719 96.1231C236.83 97.1402 236.873 98.1637 236.85 99.1866C236.868 99.7018 236.841 100.221 236.829 100.74C236.84 101.26 236.801 101.78 236.797 102.303C236.792 103.35 236.74 104.399 236.815 105.47C237.46 103.438 237.797 101.32 237.813 99.1877C237.833 98.1051 237.712 97.0245 237.453 95.9734C237.323 95.4313 237.105 94.9144 236.807 94.4434C236.509 93.9958 235.995 93.5097 235.428 93.6327Z" fill="black"/>
<path d="M251.201 97.4878C251.235 96.6738 251.15 95.8593 250.95 95.0697C250.851 94.653 250.676 94.258 250.435 93.9046C250.301 93.7032 250.121 93.5376 249.908 93.4226C249.696 93.3075 249.459 93.2464 249.218 93.2446C248.76 93.2613 248.314 93.4009 247.927 93.6491C247.53 93.8792 247.196 94.205 246.955 94.597C246.502 95.3923 246.354 96.326 246.537 97.2234C246.555 97.3317 246.612 97.4294 246.698 97.4972C246.784 97.5649 246.893 97.5978 247.002 97.5892C247.111 97.5806 247.213 97.5313 247.287 97.4509C247.362 97.3706 247.404 97.2651 247.404 97.1553V97.1334C247.44 96.2401 247.278 95.35 246.928 94.5277C246.73 94.0692 246.409 93.6745 246.002 93.3866C245.563 93.1064 245.04 92.9908 244.525 93.0603C244.045 93.0989 243.581 93.2518 243.171 93.5061C242.762 93.7605 242.418 94.1092 242.17 94.5232C241.722 95.3117 241.497 96.2074 241.518 97.1144H242.348C242.323 96.3772 242.18 95.6488 241.925 94.9572C241.795 94.5909 241.596 94.2537 241.337 93.9644C241.202 93.806 241.037 93.6761 240.851 93.5823C240.666 93.4884 240.463 93.4325 240.256 93.4178C239.879 93.4229 239.508 93.5068 239.165 93.6643C238.822 93.8217 238.516 94.0492 238.266 94.3321C237.995 94.5635 237.774 94.8473 237.615 95.1665C237.456 95.4858 237.362 95.8339 237.34 96.1901C237.497 95.5237 237.897 94.9408 238.462 94.5574C238.942 94.1399 239.562 93.9209 240.196 93.9447C240.756 94.0088 241.101 94.5808 241.276 95.1842C241.446 95.8131 241.527 96.4628 241.518 97.1144C241.519 97.2231 241.562 97.3272 241.638 97.4044C241.715 97.4816 241.818 97.5257 241.926 97.5274C242.035 97.5291 242.139 97.4882 242.218 97.4134C242.297 97.3386 242.343 97.2359 242.347 97.1273L242.348 97.1143C242.361 96.3738 242.57 95.6501 242.951 95.0164C243.126 94.7265 243.369 94.4837 243.659 94.3093C243.948 94.1348 244.276 94.0339 244.613 94.0153C244.925 93.9753 245.241 94.0444 245.508 94.211C245.775 94.3776 245.976 94.6315 246.078 94.9298C246.368 95.6212 246.52 96.363 246.525 97.1131L247.393 97.023C247.24 96.3354 247.317 95.6164 247.613 94.9772C247.77 94.6689 248.003 94.4057 248.289 94.2119C248.563 94.0035 248.885 93.8695 249.226 93.8228C249.863 93.7356 250.345 94.4854 250.63 95.1774C250.908 95.923 251.1 96.6983 251.201 97.4878Z" fill="black"/>
<path d="M250.819 103.011L250.337 107.414C250.329 107.478 250.334 107.543 250.351 107.605C250.368 107.667 250.398 107.725 250.438 107.776C250.477 107.826 250.527 107.868 250.583 107.9C250.639 107.931 250.701 107.95 250.765 107.958C250.829 107.965 250.893 107.959 250.955 107.941C251.017 107.922 251.074 107.892 251.124 107.851C251.174 107.81 251.215 107.76 251.245 107.703C251.276 107.646 251.294 107.584 251.301 107.52C251.304 107.485 251.304 107.449 251.301 107.414L250.819 103.011Z" fill="black"/>
<path d="M254.142 104.449C252.794 107.835 250.882 110.966 248.488 113.709C247.328 115.032 245.896 116.088 244.291 116.805C242.727 117.459 240.991 117.574 239.354 117.132C235.949 116.115 232.846 114.273 230.318 111.768C229.022 110.538 227.817 109.215 226.712 107.81C225.634 106.386 224.683 104.87 223.869 103.279L222.639 100.806C222.184 99.9668 221.67 99.1611 221.102 98.3952C219.973 96.8712 218.637 95.5137 217.132 94.3623C214.122 92.136 210.69 90.5492 207.048 89.699C206.151 89.4692 205.234 89.3306 204.329 89.1435C203.413 89.0297 202.493 88.9159 201.584 88.78L198.876 88.397C197.974 88.269 197.089 88.0433 196.195 87.8716C192.643 87.1112 189.22 85.8378 186.033 84.0911C182.886 82.3689 180.132 80.0067 177.947 77.1556C175.828 74.3096 174.449 70.9785 173.934 67.4633C173.79 66.5892 173.708 65.7061 173.689 64.8204C173.64 63.9333 173.652 63.0439 173.724 62.1584C173.747 61.285 173.839 60.3519 173.92 59.4288C174.009 58.5079 174.051 57.5759 174.118 56.6495C174.236 54.7761 174.244 52.8973 174.141 51.023C174.064 49.0927 173.737 47.1806 173.17 45.3344C172.554 43.398 171.424 41.6665 169.902 40.3261C168.372 39.0562 166.568 38.163 164.633 37.7178C160.92 36.7727 157.024 36.8281 153.34 37.8786C149.787 38.7612 146.239 39.6729 142.665 40.4592C140.878 40.8482 139.092 41.2504 137.296 41.5846C135.519 41.9771 133.705 42.1779 131.886 42.1835L131.872 42.1828C131.847 42.1817 131.823 42.1901 131.805 42.2063C131.786 42.2226 131.774 42.2454 131.772 42.27C131.77 42.2946 131.777 42.3192 131.792 42.3386C131.808 42.358 131.83 42.3708 131.854 42.3743C133.699 42.5401 135.557 42.4822 137.388 42.202C139.218 41.9935 141.039 41.7327 142.851 41.4197C146.475 40.8004 150.089 40.1281 153.68 39.3519C157.117 38.4781 160.722 38.5334 164.13 39.5121C165.774 39.9411 167.302 40.7302 168.606 41.8225C169.84 42.9451 170.744 44.3853 171.22 45.9869C172.248 49.2647 172.22 52.9443 172.112 56.5547C172.061 57.4641 172.038 58.3715 171.965 59.2834C171.902 60.1944 171.828 61.0941 171.816 62.061C171.756 63.0104 171.761 63.9627 171.829 64.9115C171.868 65.8645 171.973 66.8136 172.144 67.7518C172.761 71.5402 174.344 75.104 176.739 78.0968C179.135 81.0219 182.138 83.3869 185.538 85.0267C188.878 86.6483 192.413 87.8283 196.055 88.537C199.667 89.375 203.399 89.3219 206.884 90.3481C208.636 90.8073 210.339 91.4358 211.971 92.2247C213.573 93.0418 215.078 94.0395 216.456 95.1983C217.816 96.3533 219.01 97.6927 220.002 99.178C220.494 99.9132 220.933 100.683 221.316 101.48C221.68 102.254 222.015 103.159 222.434 103.998C223.239 105.711 224.215 107.338 225.346 108.854C226.492 110.356 227.772 111.749 229.171 113.017C231.941 115.65 235.315 117.558 238.995 118.572C240.942 119.057 242.997 118.845 244.805 117.973C246.527 117.111 248.042 115.885 249.246 114.38C250.433 112.932 251.447 111.35 252.266 109.665C253.104 108.011 253.793 106.286 254.325 104.51C254.332 104.485 254.329 104.459 254.317 104.436C254.305 104.414 254.284 104.397 254.26 104.39C254.236 104.384 254.211 104.386 254.19 104.397C254.168 104.408 254.151 104.426 254.142 104.449Z" fill="black"/>
<path d="M242.241 106.495L241.933 97.1144L241.278 106.477C241.273 106.541 241.281 106.605 241.301 106.665C241.321 106.725 241.353 106.781 241.395 106.829C241.436 106.877 241.487 106.916 241.543 106.945C241.6 106.973 241.662 106.99 241.725 106.994C241.788 106.999 241.852 106.991 241.912 106.971C241.972 106.95 242.027 106.919 242.075 106.877C242.123 106.835 242.162 106.784 242.191 106.727C242.219 106.671 242.236 106.609 242.24 106.545C242.241 106.529 242.241 106.512 242.241 106.495Z" fill="black"/>
<path d="M129.145 24.2611C130.204 24.5905 131.273 24.8987 132.343 25.1963L131.517 26.121C131.449 26.1894 131.408 26.2798 131.4 26.3761C131.358 26.6524 131.326 26.9394 131.284 27.2157L130.977 27.0882C130.151 26.7481 129.335 26.4398 128.52 26.1635C128.742 25.5365 128.943 24.8987 129.145 24.2611ZM129.145 24.2611C130.204 24.5905 131.273 24.8987 132.343 25.1963L131.517 26.121C131.449 26.1894 131.408 26.2798 131.4 26.3761C131.358 26.6524 131.326 26.9394 131.284 27.2157L130.977 27.0882C130.151 26.7481 129.335 26.4398 128.52 26.1635C128.742 25.5365 128.943 24.8987 129.145 24.2611ZM129.145 24.2611C130.204 24.5905 131.273 24.8987 132.343 25.1963L131.517 26.121C131.449 26.1894 131.408 26.2798 131.4 26.3761C131.358 26.6524 131.326 26.9394 131.284 27.2157L130.977 27.0882C130.151 26.7481 129.335 26.4398 128.52 26.1635C128.742 25.5365 128.943 24.8987 129.145 24.2611ZM132.322 26.6417C132.671 26.2485 133.01 25.8553 133.338 25.462C133.751 25.5789 134.164 25.6852 134.577 25.7809C134.408 26.578 134.249 27.4176 134.037 28.3422L132.194 27.5876C132.237 27.2688 132.279 26.9605 132.322 26.6417ZM129.145 24.2611C130.204 24.5905 131.273 24.8987 132.343 25.1963L131.517 26.121C131.449 26.1894 131.408 26.2798 131.4 26.3761C131.358 26.6524 131.326 26.9394 131.284 27.2157L130.977 27.0882C130.151 26.7481 129.335 26.4398 128.52 26.1635C128.742 25.5365 128.943 24.8987 129.145 24.2611ZM121.467 0.327057L142.107 14.7704C140.254 16.5878 138.475 18.4689 136.717 20.3713C135.435 21.7423 134.171 23.131 132.925 24.5374C131.612 24.0698 130.299 23.6234 128.975 23.1983C128.916 23.1782 128.854 23.1703 128.791 23.175C128.729 23.1797 128.669 23.197 128.613 23.2258C128.558 23.2546 128.509 23.2942 128.469 23.3425C128.43 23.3907 128.4 23.4465 128.382 23.5065L128.372 23.5171C128.096 24.4417 127.8 25.3664 127.546 26.3016V26.3229C127.516 26.4328 127.53 26.5501 127.585 26.6495C127.641 26.7489 127.733 26.8225 127.842 26.8543C128.901 27.1625 129.981 27.4388 131.03 27.6833C131.093 27.6939 131.157 27.7151 131.21 27.7258C130.902 30.032 130.606 32.3489 130.362 34.6552L129.939 38.8107C129.833 40.1923 129.695 41.5846 129.611 42.9768L108.282 43.4976L121.467 0.327057ZM130.987 14.9617C133.679 15.543 136.407 15.9442 139.152 16.1626C136.547 15.2736 133.887 14.5564 131.188 14.0158C128.498 13.425 125.77 13.0203 123.023 12.8043C125.628 13.699 128.288 14.4198 130.987 14.9617ZM128.52 26.1635C128.742 25.5364 128.943 24.8987 129.145 24.2611C130.204 24.5905 131.273 24.8987 132.343 25.1963L131.517 26.121C131.449 26.1894 131.407 26.2798 131.4 26.3761C131.358 26.6524 131.326 26.9394 131.284 27.2157L130.977 27.0882C130.151 26.748 129.335 26.4398 128.52 26.1635ZM133.338 25.462C133.751 25.5789 134.164 25.6852 134.577 25.7809C134.408 26.578 134.249 27.4176 134.037 28.3422L132.194 27.5876C132.237 27.2688 132.279 26.9606 132.322 26.6417C132.671 26.2485 133.01 25.8553 133.338 25.462ZM129.145 24.2611C130.204 24.5905 131.273 24.8987 132.343 25.1963L131.517 26.121C131.449 26.1894 131.407 26.2798 131.4 26.3761C131.358 26.6524 131.326 26.9394 131.284 27.2157L130.977 27.0882C130.151 26.7481 129.335 26.4398 128.52 26.1635C128.742 25.5365 128.943 24.8987 129.145 24.2611H129.145ZM132.322 26.6417C132.671 26.2485 133.01 25.8553 133.338 25.462C133.751 25.5789 134.164 25.6852 134.577 25.7809C134.408 26.578 134.249 27.4176 134.037 28.3422L132.194 27.5876C132.237 27.2688 132.279 26.9605 132.322 26.6417H132.322ZM129.145 24.2611C130.204 24.5905 131.273 24.8987 132.343 25.1963L131.517 26.121C131.449 26.1894 131.407 26.2798 131.4 26.3761C131.358 26.6524 131.326 26.9394 131.284 27.2157L130.977 27.0882C130.151 26.7481 129.335 26.4398 128.52 26.1635C128.742 25.5365 128.943 24.8987 129.145 24.2611H129.145ZM129.145 24.2611C130.204 24.5905 131.273 24.8987 132.343 25.1963L131.517 26.121C131.449 26.1894 131.407 26.2798 131.4 26.3761C131.358 26.6524 131.326 26.9394 131.284 27.2157L130.977 27.0882C130.151 26.7481 129.335 26.4398 128.52 26.1635C128.742 25.5365 128.943 24.8987 129.145 24.2611H129.145ZM132.322 26.6417C132.671 26.2485 133.01 25.8553 133.338 25.462C133.751 25.5789 134.164 25.6852 134.577 25.7809C134.408 26.578 134.249 27.4176 134.037 28.3422L132.194 27.5876C132.237 27.2688 132.279 26.9605 132.322 26.6417H132.322ZM130.415 38.8744L131.114 34.7614C131.496 32.4871 131.835 30.2021 132.142 27.9277C132.798 28.0765 133.423 28.2147 134.037 28.3422C134.387 27.5345 134.789 26.6205 135.17 25.664C135.194 25.5991 135.192 25.5274 135.165 25.4639C135.137 25.4005 135.086 25.3503 135.022 25.3239L134.99 25.3132C134.609 25.1644 134.228 25.0157 133.847 24.8775C135.001 23.549 136.145 22.2099 137.257 20.8495C138.909 18.8515 140.54 16.8428 142.107 14.7704C142.107 14.7704 144.183 37.2271 129.611 42.9768C129.918 41.6165 130.151 40.2454 130.415 38.8744ZM132.322 26.6417C132.671 26.2485 133.01 25.8553 133.338 25.462C133.751 25.5789 134.164 25.6852 134.577 25.7809C134.408 26.578 134.249 27.4176 134.037 28.3422L132.194 27.5876C132.237 27.2688 132.279 26.9605 132.322 26.6417H132.322Z" fill="black"/>
<path d="M142.157 19.2076C147.765 15.9997 154.024 14.1089 160.464 13.6774C166.845 13.3274 173.213 14.5549 179.01 17.2524C181.934 18.56 184.683 20.2304 187.193 22.2246C189.734 24.2125 191.989 26.5442 193.892 29.1534C197.472 34.5733 199.811 40.7218 200.74 47.157C201.319 50.3238 201.051 53.5323 201.273 56.8806C201.365 58.6157 201.788 60.3169 202.519 61.8918C203.291 63.4396 204.31 64.8507 205.534 66.0697C206.735 67.2954 208.094 68.3546 209.575 69.2194C210.377 69.7322 211.271 70.0827 212.207 70.2511L214.616 70.509C216.154 70.6492 217.664 71.0094 219.101 71.5787L221.34 72.4516C222.045 72.7457 222.729 73.0873 223.388 73.4743C226.031 75.2559 228.534 77.2388 230.875 79.4056C232.081 80.4653 233.212 81.5807 234.34 82.7529C235.475 83.9592 236.677 85.1012 237.939 86.1736C239.206 87.2371 240.535 88.2228 241.921 89.1254C243.29 90.0851 244.774 90.8686 246.338 91.4577C247.114 91.7445 247.905 91.9908 248.706 92.1956C249.449 92.3471 250.133 92.7068 250.68 93.2329C251.739 94.4229 252.402 95.9136 252.579 97.4988C252.583 97.5242 252.597 97.5469 252.618 97.5619C252.639 97.577 252.664 97.5832 252.69 97.5792C252.713 97.575 252.735 97.5623 252.75 97.5434C252.765 97.5246 252.772 97.5009 252.771 97.4768C252.748 95.7798 252.172 94.137 251.129 92.8007C250.543 92.1425 249.785 91.6609 248.942 91.4099C248.182 91.142 247.429 90.8711 246.701 90.5494C245.25 89.9037 243.886 89.0764 242.642 88.0872C241.353 87.1281 240.12 86.0972 238.927 85.0311C237.744 83.9501 236.622 82.8038 235.567 81.5975C234.479 80.3815 233.331 79.1647 232.129 78.0305C230.922 76.8837 229.71 75.8237 228.464 74.7416C227.207 73.6193 225.86 72.6022 224.438 71.7002C223.699 71.2538 222.925 70.8658 222.126 70.5398L219.816 69.6454C219.016 69.3361 218.196 69.0791 217.363 68.8763C216.528 68.7 215.683 68.576 214.832 68.505L212.386 68.2928C211.722 68.1546 211.087 67.9021 210.509 67.5466C209.161 66.7929 207.918 65.8626 206.814 64.7801C205.707 63.7145 204.772 62.4827 204.042 61.1288C203.349 59.7592 202.927 58.2683 202.797 56.738C202.679 53.4603 202.339 50.1945 201.78 46.9631C201.089 43.7453 200.131 40.5911 198.916 37.5339C197.739 34.4614 196.226 31.5298 194.403 28.7932C190.651 23.3077 185.599 18.8433 179.703 15.8008C173.714 12.8086 167.011 11.5554 160.35 12.1825C153.756 12.8159 147.445 15.1829 142.053 19.0448C142.032 19.0597 142.018 19.0822 142.014 19.1076C142.009 19.1329 142.015 19.1589 142.03 19.1798C142.044 19.1991 142.065 19.2126 142.088 19.2177C142.112 19.2228 142.136 19.2192 142.157 19.2076Z" fill="black"/>
<path d="M360.823 164.032C360.114 163.91 359.396 163.764 358.689 163.597C357.976 163.451 357.282 163.222 356.621 162.917C357.202 163.381 357.834 163.776 358.505 164.095C359.167 164.435 359.834 164.75 360.522 165.051C360.652 165.108 360.799 165.111 360.93 165.059C361.062 165.007 361.168 164.904 361.224 164.774C361.281 164.644 361.283 164.497 361.232 164.364C361.18 164.232 361.078 164.126 360.948 164.069C360.908 164.052 360.866 164.04 360.823 164.032Z" fill="black"/>
<path d="M425.863 342.959C428.065 347.746 430.374 352.473 432.791 357.141L433.689 358.895C434.641 360.745 435.925 362.401 437.477 363.781C439.575 365.595 442.076 366.877 444.769 367.52C449.822 368.924 454.889 370.283 459.998 371.486C462.55 372.097 465.114 372.662 467.69 373.182C468.982 373.425 470.275 373.662 471.574 373.873C472.866 374.134 474.182 374.261 475.501 374.251C472.933 373.749 470.4 373.085 467.915 372.261L460.383 370.028C455.364 368.53 450.327 367.094 445.289 365.659C444.071 365.37 442.887 364.952 441.756 364.413C440.648 363.866 439.609 363.189 438.661 362.395C437.705 361.603 436.851 360.695 436.118 359.692C435.75 359.186 435.41 358.659 435.1 358.116L434.103 356.415C431.464 351.871 428.717 347.385 425.863 342.959Z" fill="black"/>
<path d="M474.681 374.206C474.681 374.206 500.034 373.249 499.441 377.384C499.441 377.384 503.952 399.67 438.028 392.358V405.59L432.479 407.673H425.86C425.86 407.673 415.366 383.537 412.241 383.303C412.241 383.303 480.929 380.678 474.681 374.206ZM491.435 380.529C491.847 380.516 492.238 380.342 492.525 380.044C492.811 379.747 492.972 379.349 492.972 378.935C492.972 378.521 492.811 378.124 492.525 377.826C492.238 377.529 491.847 377.355 491.435 377.341C491.023 377.355 490.632 377.529 490.345 377.826C490.058 378.124 489.898 378.521 489.898 378.935C489.898 379.349 490.058 379.747 490.345 380.044C490.632 380.342 491.023 380.516 491.435 380.529ZM483.047 384.738C483.46 384.724 483.85 384.55 484.137 384.253C484.424 383.955 484.584 383.558 484.584 383.144C484.584 382.73 484.424 382.332 484.137 382.035C483.85 381.737 483.46 381.563 483.047 381.55C482.635 381.563 482.244 381.737 481.958 382.035C481.671 382.332 481.51 382.73 481.51 383.144C481.51 383.558 481.671 383.955 481.958 384.253C482.244 384.55 482.635 384.724 483.047 384.738ZM473.516 387.799C473.928 387.785 474.319 387.611 474.606 387.314C474.893 387.016 475.053 386.619 475.053 386.205C475.053 385.791 474.893 385.393 474.606 385.096C474.319 384.798 473.928 384.624 473.516 384.61C473.104 384.624 472.713 384.798 472.426 385.096C472.14 385.393 471.979 385.791 471.979 386.205C471.979 386.619 472.14 387.016 472.426 387.314C472.713 387.611 473.104 387.785 473.516 387.799Z" fill="black"/>
<path d="M129.995 271.022C128.163 271.265 126.467 272.124 125.184 273.459C124.05 274.87 123.058 276.39 122.222 277.997C120.448 281.07 118.782 284.201 117.151 287.35C115.553 290.516 113.988 293.702 112.558 296.956C111.837 298.58 111.153 300.222 110.505 301.882C109.807 303.529 109.285 305.246 108.949 307.005C109.658 305.383 110.464 303.806 111.363 302.283L113.907 297.623C115.606 294.517 117.239 291.377 118.865 288.232C120.459 285.071 122.05 281.907 123.55 278.694C124.228 277.093 125.018 275.543 125.914 274.054C126.951 272.666 128.369 271.612 129.995 271.022Z" fill="black"/>
<path d="M126.907 242.113C126.35 242.33 125.768 242.479 125.175 242.555C124.605 242.668 124.019 242.719 123.447 242.8L119.972 243.195C118.806 243.319 117.638 243.479 116.458 243.669C115.249 243.852 114.056 244.129 112.89 244.499C115.255 245.213 117.743 245.423 120.194 245.116C121.429 244.974 122.643 244.691 123.814 244.27C124.407 244.045 124.978 243.765 125.52 243.434C126.083 243.115 126.56 242.661 126.907 242.113Z" fill="black"/>
<path d="M85.2589 257.851L86.6249 251.358C86.6249 251.358 112.147 246.086 113.185 243.057C112.92 244.62 101.642 310.949 109.161 306.208C109.161 306.208 104.851 331.301 100.943 329.866C100.943 329.866 78.2904 329.686 99.0472 266.471L86.1483 263.739L85.2589 257.851ZM99.5132 322.373C99.9255 322.36 100.316 322.186 100.603 321.888C100.89 321.591 101.05 321.193 101.05 320.779C101.05 320.365 100.89 319.968 100.603 319.67C100.316 319.373 99.9255 319.199 99.5132 319.185C99.1011 319.199 98.7104 319.373 98.4237 319.67C98.137 319.968 97.9767 320.365 97.9767 320.779C97.9767 321.193 98.137 321.591 98.4237 321.888C98.7104 322.186 99.1011 322.36 99.5132 322.373V322.373ZM97.9881 312.426C98.4004 312.412 98.7912 312.238 99.078 311.941C99.3648 311.643 99.5251 311.246 99.5251 310.832C99.5251 310.418 99.3648 310.02 99.078 309.722C98.7912 309.425 98.4004 309.251 97.9881 309.237C97.576 309.251 97.1853 309.425 96.8986 309.723C96.6119 310.02 96.4517 310.418 96.4517 310.832C96.4517 311.245 96.6119 311.643 96.8986 311.941C97.1853 312.238 97.576 312.412 97.9881 312.426V312.426ZM97.6069 296.611C97.1954 296.626 96.8056 296.801 96.5197 297.098C96.2338 297.395 96.0739 297.792 96.0739 298.206C96.0739 298.619 96.2338 299.016 96.5197 299.313C96.8056 299.611 97.1954 299.785 97.6069 299.8C98.0185 299.785 98.4084 299.611 98.6944 299.314C98.9805 299.016 99.1404 298.619 99.1404 298.206C99.1404 297.792 98.9805 297.395 98.6944 297.098C98.4084 296.8 98.0185 296.626 97.6069 296.611V296.611Z" fill="black"/>
<path d="M144.204 96.0878C139.908 93.4529 135.552 90.9262 131.228 88.3423L118.154 80.7737C109.436 75.7302 100.646 70.8197 91.855 65.9096C83.0419 61.0398 74.2267 56.1735 65.3397 51.4381L52.0057 44.341C47.5268 42.0372 43.0802 39.6752 38.5729 37.4227C42.8683 40.0589 47.2244 42.5857 51.5481 45.1706L64.6218 52.7399C73.3397 57.782 82.1301 62.6932 90.9221 67.601C99.7365 72.4685 108.551 77.3355 117.439 82.0695L130.773 89.1672C135.251 91.472 139.698 93.834 144.204 96.0878Z" fill="black"/>
<path d="M169.711 151.235C166.023 149.086 162.279 147.047 158.564 144.95L147.325 138.844C139.831 134.776 132.268 130.844 124.704 126.911C117.12 123.02 109.534 119.132 101.879 115.377L90.3942 109.75C86.5338 107.938 82.7035 106.066 78.8163 104.306C82.5037 106.456 86.2479 108.495 89.9619 110.593L101.201 116.7C108.695 120.766 116.258 124.7 123.823 128.63C131.409 132.519 138.995 136.408 146.65 140.161L158.134 145.788C161.994 147.602 165.824 149.474 169.711 151.235Z" fill="black"/>
<path d="M91.3887 162.144C87.7008 159.995 83.9563 157.956 80.2417 155.859L69.0026 149.754C61.5085 145.685 53.9454 141.753 46.3819 137.82C38.7975 133.929 31.2112 130.041 23.5568 126.286L12.0719 120.659C8.21146 118.847 4.38119 116.975 0.494019 115.215C4.18136 117.365 7.92561 119.404 11.6396 121.503L22.8785 127.609C30.3731 131.675 37.9359 135.609 45.5008 139.539C53.0863 143.428 60.6723 147.317 68.3275 151.071L79.8118 156.697C83.672 158.511 87.502 160.383 91.3887 162.144Z" fill="black"/>
<path d="M402.766 364C404.047 365.373 405.233 366.832 406.317 368.366C407.379 369.868 408.354 371.43 409.236 373.044C409.657 373.86 410.119 374.658 410.482 375.507L411.081 376.757C411.25 377.187 411.435 377.612 411.628 378.037C412.026 378.881 412.312 379.77 412.691 380.638C413.046 381.514 413.336 382.414 413.748 383.303C413.758 382.335 413.711 381.367 413.608 380.405C413.483 379.443 413.297 378.49 413.052 377.551C412.564 375.66 411.85 373.835 410.926 372.115C409.979 370.4 408.816 368.816 407.465 367.4C406.142 365.962 404.544 364.806 402.766 364Z" fill="black"/>
<path d="M330.205 71.762C330.521 73.3959 330.678 75.0569 330.672 76.7214C330.607 78.3608 330.427 79.9936 330.134 81.6077C329.819 83.2216 329.521 84.8521 329.145 86.4909C328.783 88.1344 328.215 89.7251 327.454 91.225C327.428 91.2742 327.416 91.3296 327.419 91.3852C327.482 92.6712 327.678 93.9472 328.001 95.1931C328.349 96.568 329.189 97.7666 330.36 98.5611C331.015 98.9258 331.747 99.1319 332.495 99.1629C333.244 99.1939 333.99 99.049 334.674 98.7397C336.013 98.1918 337.161 97.2586 337.973 96.0575C338.832 94.8111 339.178 93.2797 338.939 91.7832L338.843 91.0035C338.846 90.7901 338.862 90.5771 338.891 90.3657C339.008 89.974 339.258 89.6359 339.598 89.4101C340.588 88.8889 341.686 88.6093 342.804 88.594C344.034 88.5224 345.268 88.5354 346.497 88.6328C346.509 88.634 346.522 88.6327 346.534 88.6289C346.546 88.6251 346.558 88.6189 346.568 88.6107C346.577 88.6025 346.586 88.5925 346.592 88.5811C346.597 88.5698 346.601 88.5573 346.602 88.5446C346.604 88.5235 346.599 88.5025 346.588 88.4846C346.576 88.4666 346.56 88.4526 346.541 88.4445C345.35 87.9737 344.107 87.6513 342.839 87.4844C341.466 87.2541 340.057 87.415 338.771 87.9487C338.014 88.3377 337.427 88.9926 337.121 89.7884C336.998 90.18 336.925 90.5857 336.904 90.9957L336.974 92.0833C337.065 93.0906 336.81 94.0988 336.253 94.9413C335.209 96.7323 332.891 98.0353 331.045 97.237C330.047 96.7484 329.264 95.907 328.847 94.8744C328.357 93.7586 328.071 92.5636 328.002 91.3464L327.967 91.5061C328.746 89.9663 329.516 88.4472 330.237 86.8687C330.985 85.2938 331.524 83.627 331.839 81.9111C332.126 80.1737 332.186 78.4063 332.018 76.6534C331.819 74.9034 331.262 73.2133 330.384 71.6887C330.37 71.6664 330.349 71.6504 330.324 71.6441C330.298 71.6378 330.272 71.6418 330.25 71.6551C330.233 71.6666 330.219 71.6828 330.211 71.7018C330.203 71.7208 330.201 71.7417 330.205 71.762Z" fill="black"/>
<path d="M346.503 88.634L346.675 88.6844C346.695 88.6902 346.716 88.6909 346.736 88.6866C348.207 88.3954 349.628 87.8908 350.953 87.1886C352.31 86.4921 353.534 85.5597 354.567 84.4346C355.624 83.317 356.5 82.0395 357.161 80.649C357.849 79.2487 358.321 77.7518 358.56 76.2094C358.578 76.0908 358.566 75.9696 358.526 75.8565C358.486 75.7434 358.419 75.6419 358.331 75.561C358.243 75.4802 358.136 75.4224 358.02 75.3928C357.904 75.3631 357.783 75.3626 357.667 75.3912L357.568 75.4165C357.38 75.4771 357.182 75.4958 356.986 75.4712C356.849 75.43 356.733 75.3389 356.659 75.2158C356.409 74.7608 356.268 74.2537 356.247 73.7345C356.099 72.5632 356.267 71.3733 356.735 70.2898C356.86 70.0403 357.021 69.8187 357.156 69.5778C357.33 69.4187 357.474 69.1738 357.655 69.0992C357.815 68.9824 358.002 68.9089 358.199 68.8857C358.396 68.8624 358.595 68.8902 358.778 68.9664C359.82 69.4487 360.719 70.1937 361.388 71.1288L361.427 71.1775C361.509 71.2814 361.618 71.3618 361.741 71.4105C363.645 72.0533 365.689 72.16 367.65 71.7188C369.522 71.3692 371.35 70.814 373.101 70.0633C374.841 69.3382 376.532 68.5208 378.183 67.6386C379.831 66.7462 381.455 65.8298 383.035 64.8069L383.063 64.7888C383.1 64.7648 383.13 64.7307 383.148 64.6904C383.166 64.6502 383.173 64.6056 383.167 64.5618C383.151 64.4234 383.106 64.29 383.034 64.1706C382.987 64.081 382.934 63.9945 382.876 63.9115C382.768 63.7444 382.646 63.6014 382.528 63.4511C382.285 63.1626 382.03 62.8908 381.768 62.6295C381.242 62.108 380.695 61.6168 380.144 61.1325C379.037 60.168 377.882 59.2717 376.735 58.3649C375.578 57.4712 374.407 56.5974 373.222 55.7435C372.033 54.8552 370.793 54.0368 369.51 53.2924C366.79 51.7545 363.607 51.2595 360.551 51.8993C357.523 52.7362 354.863 54.5722 353 57.1115C351.455 59.3212 349.109 60.8347 346.464 61.3268C345.147 61.5466 343.803 61.5543 342.483 61.3494C341.814 61.2305 341.151 61.0767 340.498 60.8885L338.485 60.2064C335.625 59.136 332.555 58.753 329.521 59.0881C326.488 59.4233 323.574 60.4672 321.015 62.1363C320.919 62.2013 320.843 62.2921 320.796 62.3983C320.748 62.5045 320.732 62.6218 320.748 62.737C320.764 62.8522 320.812 62.9605 320.886 63.0498C320.96 63.139 321.058 63.2055 321.168 63.2418L321.205 63.2538C321.629 63.4414 322.031 63.678 322.401 63.9589C322.829 64.2579 323.254 64.5791 323.675 64.9054C324.518 65.5577 325.339 66.2476 326.171 66.9261L327.408 67.9574C327.795 68.3067 328.157 68.6832 328.492 69.084C329.171 69.9022 329.747 70.8018 330.205 71.7621C330.216 71.7845 330.235 71.8018 330.258 71.8107C330.281 71.8197 330.306 71.8194 330.329 71.81C330.352 71.8007 330.37 71.7829 330.38 71.7604C330.391 71.7379 330.392 71.7123 330.384 71.6889C330.03 70.6499 329.532 69.666 328.906 68.7659C328.589 68.3078 328.24 67.8734 327.861 67.4661L326.714 66.3192C325.945 65.5585 325.149 64.8266 324.339 64.1009C323.931 63.7399 323.52 63.3829 323.087 63.0366C322.627 62.6311 322.109 62.2969 321.551 62.0448L321.741 63.1621C324.162 61.769 326.869 60.9521 329.654 60.7741C332.43 60.6037 335.21 61.0445 337.799 62.0656L339.905 62.8222C340.644 63.0509 341.394 63.2392 342.153 63.3863C343.71 63.6377 345.297 63.6263 346.849 63.3525C348.405 63.0555 349.887 62.4507 351.207 61.5733C352.528 60.6959 353.661 59.5635 354.541 58.2421C356.113 56.0091 358.374 54.3585 360.975 53.546C363.653 52.9104 366.468 53.2355 368.932 54.4649C370.206 55.1068 371.443 55.8226 372.634 56.6087C373.854 57.3954 375.06 58.2011 376.252 59.0259C377.442 59.8532 378.614 60.7092 379.728 61.6289C380.287 62.0851 380.831 62.5599 381.342 63.0614C381.598 63.3116 381.843 63.5691 382.073 63.8352C382.181 63.9705 382.297 64.104 382.387 64.2429C382.481 64.3509 382.576 64.5881 382.583 64.5626L382.714 64.3179C379.603 66.3242 376.261 67.946 372.762 69.1478C371.045 69.7554 369.267 70.1746 367.46 70.3982C365.747 70.6646 363.996 70.491 362.368 69.8937L362.721 70.1752C361.895 68.9062 360.71 67.9142 359.318 67.3274C358.883 67.1688 358.416 67.1164 357.957 67.1746C357.498 67.2327 357.059 67.3997 356.677 67.6618C356.328 67.9118 356.02 68.2157 355.766 68.5621C355.571 68.8954 355.355 69.2218 355.191 69.5679C354.614 70.936 354.415 72.4352 354.616 73.9072C354.673 74.7172 354.942 75.4978 355.396 76.1695C355.708 76.5921 356.164 76.8849 356.678 76.992C357.139 77.0611 357.609 77.0142 358.048 76.8557L357.055 76.0629C356.871 77.4521 356.503 78.8105 355.961 80.102C355.41 81.4128 354.675 82.6374 353.777 83.7384C352.878 84.8549 351.808 85.8209 350.607 86.6C349.381 87.3867 348.063 88.0169 346.683 88.4759L346.743 88.4781L346.535 88.4435C346.51 88.4394 346.486 88.4448 346.465 88.4585C346.445 88.4721 346.43 88.4931 346.425 88.5171C346.42 88.5411 346.423 88.5662 346.436 88.5874C346.448 88.6086 346.468 88.6243 346.492 88.6311L346.503 88.634Z" fill="black"/>
<path d="M331.3 76.1465C331.343 76.6354 331.364 77.1242 331.364 77.6131C331.392 77.1233 331.371 76.6319 331.3 76.1465V76.1465Z" stroke="black" stroke-width="0.96777" stroke-linecap="round" stroke-linejoin="round"/>
<path d="M278.657 132.568C270.349 140.295 262.088 148.068 253.875 155.888C245.602 163.648 237.459 171.542 229.219 179.335C225.092 183.224 221.033 187.186 216.948 191.119L210.824 197.023L204.746 202.975C196.618 210.886 188.573 218.886 180.352 226.7L180.697 226.605C178.217 225.946 175.828 224.983 173.582 223.738C171.316 222.517 169.222 220.999 167.354 219.225C165.473 217.471 163.871 215.439 162.602 213.2C162.264 212.655 161.967 212.084 161.714 211.494L160.892 209.741L160.048 207.949C159.778 207.345 159.396 206.805 159.076 206.23C156.304 201.759 152.905 197.713 148.983 194.215C145.124 190.662 140.982 187.433 136.598 184.558L136.225 185.95L137.666 185.794C138.144 185.734 138.574 185.588 139.03 185.488C139.919 185.266 140.795 184.995 141.654 184.676C143.36 184.056 145.025 183.361 146.658 182.613C149.929 181.122 153.128 179.504 156.278 177.808C162.584 174.421 168.745 170.797 174.862 167.108C187.103 159.739 199.071 151.946 210.962 144.046C222.877 136.183 234.582 128.009 246.296 119.856L263.746 107.451C269.542 103.287 275.297 99.0655 281.058 94.8537C281.08 94.8373 281.096 94.8127 281.1 94.7853C281.105 94.7578 281.098 94.7296 281.082 94.7068C281.067 94.684 281.042 94.6683 281.015 94.6632C280.988 94.6581 280.96 94.664 280.937 94.6795L245.393 118.531C233.579 126.525 221.652 134.35 209.773 142.237C203.821 146.162 197.843 150.046 191.84 153.889C185.833 157.724 179.844 161.586 173.777 165.318C167.716 169.058 161.6 172.709 155.384 176.155C152.283 177.89 149.141 179.544 145.948 181.063C144.353 181.826 142.735 182.531 141.102 183.155C140.281 183.435 139.463 183.779 138.637 183.971C138.227 184.071 137.808 184.224 137.403 184.282L136.192 184.449L136.109 184.46C135.956 184.481 135.814 184.549 135.701 184.654C135.589 184.759 135.511 184.897 135.48 185.048C135.448 185.199 135.464 185.356 135.524 185.498C135.585 185.64 135.688 185.759 135.819 185.84C140.203 188.561 144.357 191.641 148.236 195.048C152.164 198.398 155.588 202.302 158.4 206.638C158.717 207.196 159.097 207.723 159.362 208.307L160.196 210.042L161.046 211.819C161.311 212.424 161.621 213.008 161.974 213.566C163.294 215.854 164.955 217.927 166.899 219.711C170.777 223.303 175.448 225.921 180.529 227.35C180.587 227.366 180.647 227.367 180.706 227.352C180.764 227.338 180.817 227.309 180.861 227.268L180.874 227.255C189.124 219.47 197.514 211.834 205.801 204.089L212.028 198.292L218.201 192.437C222.314 188.532 226.438 184.638 230.495 180.674C238.62 172.758 246.805 164.903 254.834 156.886C262.897 148.905 270.887 140.849 278.805 132.72C278.824 132.701 278.835 132.674 278.835 132.646C278.835 132.618 278.824 132.592 278.805 132.572C278.786 132.552 278.759 132.541 278.732 132.54C278.704 132.539 278.677 132.549 278.657 132.568L278.657 132.568Z" fill="black"/>
<path d="M323.782 64.3176C323.782 64.3176 323.633 64.4239 323.337 64.6471L329.712 71.1301C328.254 68.4526 326.23 66.1275 323.782 64.3176V64.3176Z" stroke="black" stroke-width="0.96777" stroke-linecap="round" stroke-linejoin="round"/>
<path d="M305.712 150.359C304.907 150.963 304.192 151.679 303.589 152.485C302.973 153.287 302.445 154.153 302.014 155.068C301.593 155.998 301.297 156.981 301.132 157.989C300.978 159 301.038 160.032 301.308 161.018C301.453 160.056 301.664 159.105 301.938 158.171C302.235 157.266 302.581 156.378 302.976 155.512C303.775 153.773 304.738 152.112 305.712 150.359Z" fill="black"/>
<path d="M179.452 223.407C179.04 223.392 178.65 223.218 178.364 222.921C178.077 222.623 177.917 222.226 177.917 221.812C177.917 221.399 178.077 221.001 178.364 220.704C178.65 220.407 179.04 220.232 179.452 220.218C179.864 220.232 180.254 220.407 180.54 220.704C180.826 221.001 180.986 221.399 180.986 221.812C180.986 222.226 180.826 222.623 180.54 222.921C180.254 223.218 179.864 223.392 179.452 223.407Z" fill="black"/>
<path d="M155.052 196.624C154.64 196.61 154.25 196.436 153.964 196.138C153.678 195.841 153.518 195.444 153.518 195.03C153.518 194.617 153.678 194.219 153.964 193.922C154.25 193.624 154.64 193.45 155.052 193.436C155.464 193.45 155.854 193.624 156.141 193.922C156.427 194.219 156.587 194.617 156.587 195.03C156.587 195.444 156.427 195.841 156.141 196.138C155.854 196.436 155.464 196.61 155.052 196.624Z" fill="black"/>
<path d="M160.39 202.491C159.978 202.477 159.588 202.302 159.301 202.005C159.015 201.708 158.855 201.31 158.855 200.897C158.855 200.483 159.015 200.086 159.301 199.788C159.588 199.491 159.978 199.317 160.39 199.303C160.802 199.317 161.192 199.491 161.478 199.788C161.764 200.086 161.924 200.483 161.924 200.897C161.924 201.31 161.764 201.708 161.478 202.005C161.192 202.302 160.802 202.477 160.39 202.491Z" fill="black"/>
<path d="M149.207 192.033C148.795 192.019 148.405 191.845 148.118 191.547C147.832 191.25 147.672 190.852 147.672 190.439C147.672 190.025 147.832 189.628 148.118 189.331C148.405 189.033 148.795 188.859 149.207 188.845C149.618 188.859 150.009 189.033 150.295 189.331C150.581 189.628 150.741 190.025 150.741 190.439C150.741 190.852 150.581 191.25 150.295 191.547C150.009 191.845 149.618 192.019 149.207 192.033Z" fill="black"/>
<path d="M163.694 209.378C163.282 209.363 162.892 209.189 162.606 208.892C162.319 208.594 162.159 208.197 162.159 207.784C162.159 207.37 162.319 206.973 162.606 206.675C162.892 206.378 163.282 206.204 163.694 206.189C164.106 206.204 164.496 206.378 164.782 206.675C165.068 206.973 165.229 207.37 165.229 207.784C165.229 208.197 165.068 208.594 164.782 208.892C164.496 209.189 164.106 209.363 163.694 209.378Z" fill="black"/>
<path d="M168.015 216.265C167.603 216.25 167.213 216.076 166.926 215.779C166.64 215.481 166.48 215.084 166.48 214.67C166.48 214.257 166.64 213.86 166.926 213.562C167.213 213.265 167.603 213.091 168.015 213.076C168.426 213.091 168.817 213.265 169.103 213.562C169.389 213.86 169.549 214.257 169.549 214.67C169.549 215.084 169.389 215.481 169.103 215.779C168.817 216.076 168.426 216.25 168.015 216.265Z" fill="black"/>
<path d="M173.352 220.601C172.94 220.587 172.55 220.412 172.264 220.115C171.977 219.817 171.818 219.42 171.818 219.007C171.818 218.593 171.977 218.196 172.264 217.898C172.55 217.601 172.94 217.427 173.352 217.412C173.764 217.427 174.154 217.601 174.44 217.898C174.727 218.196 174.887 218.593 174.887 219.007C174.887 219.42 174.727 219.817 174.44 220.115C174.154 220.412 173.764 220.587 173.352 220.601Z" fill="black"/>
</svg>
