<svg width="455" height="216" viewBox="0 0 455 216" fill="none" xmlns="http://www.w3.org/2000/svg">
<path d="M289.667 88.9746C288.916 85.0934 287.478 81.3774 285.42 78.0016C284.343 76.3739 283.126 74.8721 281.337 74.4083C279.506 73.9516 277.595 73.9243 275.752 74.3285C273.833 74.6441 271.906 75.1631 269.908 75.539C268.888 75.7493 267.852 75.8764 266.812 75.9191C265.67 75.9899 264.53 75.7569 263.508 75.2439C262.473 74.6934 261.628 73.8451 261.081 72.8087C260.583 71.8434 260.242 70.8051 260.07 69.7328C259.977 69.234 259.911 68.6857 259.826 68.2974C259.717 67.8972 259.548 67.5158 259.325 67.1658C258.834 66.3728 258.251 65.6403 257.589 64.9833L258.068 63.757C258.064 63.7534 258.06 63.7507 258.055 63.749C258.05 63.7472 258.045 63.7465 258.04 63.7469C258.035 63.7473 258.029 63.7487 258.025 63.7511C258.02 63.7536 258.016 63.7569 258.013 63.761C258.022 63.7611 258.073 63.7267 258.102 63.7137C258.192 63.6651 258.277 63.608 258.356 63.5433C258.553 63.389 258.741 63.2234 258.919 63.0475C259.295 62.686 259.661 62.2892 260.017 61.8823C260.73 61.0703 261.42 60.2118 262.079 59.3506L262.849 60.1026C262.728 60.1717 262.6 60.2284 262.468 60.2721L262.2 60.3229C262.02 60.3563 261.875 60.3559 261.71 60.3733C261.399 60.3887 261.094 60.3951 260.794 60.3909C260.192 60.385 259.598 60.3599 259.006 60.324C257.821 60.2568 256.647 60.147 255.468 60.0378L255.462 60.0372C255.393 60.0308 255.327 60.0052 255.272 59.9633C255.217 59.9214 255.175 59.865 255.151 59.8004C254.972 59.3217 254.766 58.8536 254.533 58.3982C254.303 57.969 254.028 57.4684 253.718 57.3472C252.8 56.9957 251.733 56.7663 250.729 56.4851C249.683 56.2308 248.653 55.9163 247.643 55.5431C247.491 55.4639 247.358 55.3521 247.254 55.2156C247.15 55.079 247.078 54.9212 247.042 54.7534C246.981 54.4566 246.98 54.1507 247.038 53.8534C247.142 53.3106 247.314 52.783 247.549 52.2828C248.491 50.3758 249.592 48.5516 250.84 46.8296C251.433 46.0048 251.898 45.095 252.22 44.1313C252.538 43.2228 252.619 42.2476 252.452 41.2993L252.468 41.3444C251.819 39.6322 251.364 37.853 251.11 36.0398C250.833 34.2512 250.662 32.4479 250.597 30.6392C250.517 28.8358 250.513 27.0334 250.557 25.2333C250.6 23.4289 250.684 21.6422 250.856 19.8268C250.874 19.6309 250.958 19.4469 251.094 19.3046C251.23 19.1623 251.41 19.0699 251.605 19.0423C251.8 19.0148 251.998 19.0536 252.168 19.1526C252.338 19.2516 252.47 19.4051 252.542 19.5881L252.555 19.6223C253.611 22.2834 254.863 24.8623 256.301 27.3375C257.717 29.806 259.373 32.1295 261.243 34.2745C263.032 36.3951 265.251 38.112 267.753 39.3117C268.972 39.8718 270.287 40.1926 271.627 40.2567C272.968 40.2987 274.308 40.1191 275.591 39.7251L274.978 40.4602C275.232 39.0143 275.686 37.6107 276.326 36.2894C276.659 35.5982 277.086 34.9563 277.595 34.3818C278.158 33.7524 278.885 33.2921 279.695 33.0527C280.115 32.9538 280.546 32.9159 280.976 32.9402C281.384 32.9821 281.786 33.0752 282.171 33.217C282.91 33.4773 283.592 33.8757 284.181 34.3909C285.294 35.4109 286.084 36.7354 286.451 38.1999C286.876 39.5374 287.209 40.9023 287.448 42.2851C287.713 43.6842 287.769 45.115 287.613 46.5304C287.564 47.2671 287.349 47.9831 286.984 48.6248C286.619 49.2664 286.113 49.8172 285.505 50.2358C284.225 50.8896 282.754 51.0679 281.355 50.7388C281.33 50.7348 281.308 50.7211 281.293 50.7007C281.278 50.6802 281.272 50.6547 281.276 50.6298C281.28 50.6061 281.293 50.5849 281.312 50.5702C281.331 50.5555 281.355 50.5483 281.379 50.55C282.708 50.7417 284.062 50.478 285.222 49.8018C285.724 49.3993 286.128 48.8879 286.403 48.3063C286.678 47.7247 286.818 47.0882 286.811 46.4449C286.821 43.7544 286.298 41.0885 285.272 38.6012C284.913 37.3904 284.209 36.3102 283.246 35.4928C282.785 35.114 282.255 34.8267 281.685 34.6466C281.423 34.5578 281.15 34.5016 280.874 34.4792C280.745 34.4704 280.616 34.4793 280.489 34.5058C280.366 34.5342 280.229 34.4981 280.116 34.5704C279.593 34.8053 279.123 35.1446 278.735 35.5675C278.347 35.9904 278.05 36.488 277.861 37.0299C277.339 38.2082 276.979 39.452 276.792 40.7271L276.791 40.7321C276.766 40.8981 276.695 41.0539 276.587 41.1827C276.479 41.3114 276.338 41.4081 276.179 41.4625C274.691 41.9822 273.121 42.2286 271.546 42.1897C269.966 42.1363 268.411 41.7824 266.964 41.1469C264.17 39.8688 261.697 37.9808 259.728 35.6216C257.774 33.3651 256.068 30.9047 254.641 28.283C253.195 25.6928 251.946 22.9978 250.903 20.2208L252.603 20.0163C252.416 21.754 252.282 23.5333 252.181 25.2967C252.083 27.0642 252.033 28.8348 252.057 30.6009C252.085 32.3658 252.127 34.134 252.33 35.8783C252.487 37.6154 252.843 39.3287 253.389 40.9849L253.401 41.0189L253.405 41.0306C253.589 42.1694 253.461 43.3369 253.035 44.409C252.649 45.4316 252.111 46.3902 251.44 47.2526C250.179 48.9129 249.068 50.6819 248.12 52.5386C247.9 52.988 247.736 53.463 247.633 53.9527C247.535 54.429 247.592 54.8788 247.927 55.0388C248.392 55.2305 248.871 55.3862 249.36 55.5045L250.881 55.906C251.906 56.1772 252.904 56.3911 253.968 56.7495C254.129 56.8102 254.276 56.9031 254.399 57.0226C254.509 57.1267 254.609 57.2407 254.698 57.3632C254.863 57.5877 255.013 57.8232 255.146 58.0682C255.407 58.5428 255.641 59.032 255.845 59.5334L255.528 59.2962C256.695 59.3659 257.87 59.4013 259.036 59.4132C259.62 59.4192 260.203 59.4143 260.777 59.3908C261.064 59.3806 261.347 59.3597 261.622 59.3325C261.749 59.3116 261.9 59.3022 262.007 59.2735L262.172 59.2356C262.19 59.2217 262.18 59.2217 262.196 59.2314L262.894 59.6519C262.92 59.6677 262.943 59.6885 262.961 59.7131C262.979 59.7377 262.992 59.7657 263 59.7954C263.007 59.8251 263.008 59.856 263.004 59.8863C262.999 59.9166 262.989 59.9457 262.973 59.9719L262.965 59.9837C262.329 60.908 261.68 61.805 260.978 62.6861C260.629 63.1268 260.267 63.5606 259.868 63.9847C259.664 64.2063 259.447 64.416 259.218 64.6126C259.088 64.7274 258.948 64.8303 258.8 64.9202C258.712 64.9759 258.62 65.0253 258.525 65.0681C258.377 65.1181 258.224 65.1525 258.068 65.1707L258.548 63.9447C259.34 64.6551 260.044 65.4581 260.645 66.3365C260.973 66.8196 261.222 67.3518 261.382 67.9132C261.522 68.4961 261.578 68.94 261.682 69.4187C261.854 70.314 262.151 71.1807 262.565 71.9934C262.954 72.7333 263.558 73.3379 264.298 73.7279C265.75 74.5123 267.705 74.2707 269.625 73.9527C271.554 73.6296 273.496 73.145 275.52 72.8497C277.596 72.425 279.745 72.5309 281.769 73.1576C282.282 73.3458 282.775 73.5854 283.24 73.8728L283.887 74.3753C284.109 74.5327 284.308 74.7189 284.48 74.9289L285.021 75.5304C285.186 75.7356 285.323 75.9501 285.475 76.1593C285.785 76.5727 286.042 77.0165 286.308 77.454C287.325 79.213 288.118 81.0925 288.669 83.0486C289.249 84.9741 289.646 86.95 289.856 88.9501C289.857 88.9625 289.856 88.975 289.852 88.987C289.849 88.9989 289.843 89.0101 289.835 89.0197C289.827 89.0294 289.817 89.0374 289.806 89.0433C289.795 89.0492 289.783 89.0528 289.771 89.0541C289.747 89.0554 289.723 89.0481 289.704 89.0335C289.685 89.0189 289.672 88.998 289.667 88.9746Z" fill="black"/>
<path d="M282.852 51.5578C281.307 54.4223 280.86 57.7526 281.596 60.9232C282.852 66.1769 280.783 73.5495 280.783 73.5495C280.783 73.5495 275.543 92.2171 290.961 88.9621C306.38 85.7071 330.707 77.3125 334.99 60.3521C334.99 60.3521 330.293 48.3042 327.623 44.4196C321.612 35.6732 311.519 12.7258 306.551 9.2995C305.44 7.5731 303.993 6.08807 302.296 4.93297C297.152 1.18837 290.805 -0.51969 284.477 0.138044C275.162 1.00484 260.162 4.85505 251.729 19.9212C251.729 19.9212 259.892 45.3255 275.885 40.5935C275.885 40.5935 277.146 31.6084 282.642 34.3096C284.075 35.0531 285.175 36.3094 285.723 37.828C287.178 41.628 289.486 49.8928 282.852 51.5578Z" fill="black"/>
<path d="M253.785 40.6506C254.135 40.0896 254.574 39.5897 255.086 39.1709C255.589 38.7417 256.144 38.3769 256.737 38.0848C257.342 37.7912 257.989 37.593 258.654 37.4974C259.325 37.4007 260.01 37.4838 260.638 37.7382C259.425 37.9711 258.251 38.3762 257.152 38.941C256.046 39.4678 254.984 40.0911 253.785 40.6506Z" fill="black"/>
<path d="M258.068 45.6758C258.438 45.663 258.789 45.507 259.046 45.2407C259.303 44.9743 259.447 44.6185 259.447 44.2482C259.447 43.8779 259.303 43.5221 259.046 43.2557C258.789 42.9894 258.438 42.8334 258.068 42.8206C257.698 42.8334 257.347 42.9894 257.09 43.2557C256.833 43.5221 256.689 43.8779 256.689 44.2482C256.689 44.6185 256.833 44.9743 257.09 45.2407C257.347 45.507 257.698 45.663 258.068 45.6758Z" fill="black"/>
<path d="M334.993 60.2163C338.288 60.2833 341.567 60.6836 344.782 61.4111C348.008 62.1092 351.178 63.0466 354.266 64.2155C357.366 65.3671 360.391 66.7127 363.323 68.2444C364.763 69.0568 366.238 69.8144 367.629 70.713L369.743 72.0172L371.79 73.4224C377.228 77.2107 382.211 81.6119 386.643 86.5392C391.012 91.4863 394.911 96.8303 398.287 102.502C404.887 113.853 410.275 125.866 414.365 138.343C414.931 139.884 415.404 141.454 415.869 143.026L417.298 147.737C418.175 150.901 418.99 154.097 419.798 157.29C420.916 163.738 422.056 170.185 423.115 176.648C423.159 176.915 423.117 177.189 422.994 177.431C422.871 177.672 422.675 177.868 422.433 177.991L422.416 177.999C416.38 181.049 410.189 183.781 403.867 186.182C400.699 187.364 397.501 188.464 394.275 189.484C391.037 190.458 387.789 191.401 384.506 192.211C377.946 193.836 371.303 195.106 364.606 196.017C357.92 196.916 351.188 197.446 344.444 197.602L344.407 197.603C344.261 197.607 344.119 197.553 344.012 197.452C340.976 194.57 337.909 191.724 334.9 188.811C334.875 188.786 334.86 188.753 334.859 188.718C334.857 188.683 334.869 188.649 334.892 188.623C334.916 188.597 334.948 188.58 334.983 188.577C335.017 188.574 335.052 188.585 335.079 188.607C338.352 191.22 341.567 193.899 344.812 196.543L344.381 196.393C351.06 195.889 357.691 194.97 364.276 193.872C370.862 192.76 377.376 191.28 383.812 189.542C390.249 187.804 396.598 185.781 402.858 183.473C409.112 181.17 415.274 178.602 421.28 175.697L420.58 177.048C419.601 170.597 418.702 164.131 417.781 157.665C417.11 154.494 416.472 151.313 415.747 148.142L414.535 143.41C414.136 141.83 413.731 140.251 413.231 138.7L411.802 134.025C411.33 132.464 410.703 130.958 410.161 129.421C409.083 126.343 407.823 123.336 406.509 120.352C403.841 114.409 400.668 108.705 397.024 103.304C393.398 97.9321 389.346 92.8599 384.907 88.1367C380.512 83.4053 375.672 79.1087 370.453 75.3063C365.232 71.4951 359.602 68.2777 353.668 65.7135C347.716 63.1053 341.428 61.3463 334.987 60.4881L334.977 60.4868C334.943 60.4829 334.911 60.4659 334.889 60.4393C334.866 60.4128 334.855 60.3788 334.857 60.3442C334.859 60.3096 334.874 60.2771 334.9 60.2534C334.925 60.2296 334.958 60.2163 334.993 60.2163L334.993 60.2163Z" fill="black"/>
<path d="M417.25 177.978C418.063 179.423 418.726 180.948 419.226 182.528C419.728 184.068 420.136 185.637 420.447 187.227C420.762 188.815 420.978 190.422 421.094 192.037C421.229 193.69 421.19 195.353 420.978 196.998C420.161 195.554 419.498 194.03 418.998 192.448C418.496 190.909 418.089 189.339 417.781 187.749C417.469 186.16 417.254 184.553 417.137 182.938C417.004 181.285 417.042 179.623 417.25 177.978Z" fill="black"/>
<path d="M339.199 106.536C340.193 103.74 341.561 101.091 343.264 98.6606C344.948 96.1822 346.948 93.9343 349.214 91.9737C350.369 90.9981 351.599 90.1156 352.894 89.3346C354.205 88.5666 355.591 87.9336 357.03 87.4452C358.474 86.9808 359.968 86.6933 361.481 86.5888C362.974 86.5193 364.47 86.6597 365.925 87.0061C364.476 87.0794 363.036 87.2713 361.619 87.5798C360.243 87.9122 358.898 88.3638 357.6 88.9295C355.039 90.1194 352.66 91.6665 350.533 93.5248C349.44 94.4365 348.401 95.4103 347.42 96.4414C346.408 97.4515 345.47 98.5368 344.522 99.6219C342.664 101.824 340.902 104.129 339.199 106.536Z" fill="black"/>
<path d="M374.001 91.5664C375.709 92.744 377.215 94.1895 378.462 95.8472C379.74 97.4956 380.801 99.3006 381.621 101.218C382.459 103.141 383.002 105.179 383.232 107.263C383.489 109.332 383.355 111.431 382.836 113.45C382.555 111.465 382.165 109.497 381.669 107.554C381.168 105.663 380.525 103.812 379.747 102.017C378.974 100.208 378.105 98.4413 377.143 96.7249C376.165 94.9978 375.121 93.2975 374.001 91.5664Z" fill="black"/>
<path d="M262.93 119.288C261.979 122.958 260.959 126.658 259.729 130.268C258.509 133.878 257.189 137.438 256.04 141.048C255.5 142.748 254.979 144.458 254.52 146.178C254.29 145.988 254.06 145.788 253.83 145.598C254.259 143.988 254.729 142.388 255.2 140.788C256.27 137.138 257.33 133.498 258.279 129.838C259.259 126.188 259.99 122.508 260.719 118.788C262.24 111.368 263.879 103.967 265.569 96.5776C267.25 89.1776 269.02 81.8076 270.969 74.4576C270.981 74.4235 271.005 74.3952 271.036 74.3785C271.068 74.3617 271.105 74.3578 271.14 74.3676C271.173 74.3742 271.202 74.3937 271.221 74.4218C271.24 74.4499 271.246 74.4843 271.24 74.5175C270.24 82.0475 269.009 89.5375 267.629 96.9975C266.24 104.468 264.759 111.908 262.93 119.288Z" fill="black"/>
<path d="M299.779 169.417C299.024 169.641 298.232 169.713 297.45 169.628C296.87 167.388 296.353 165.131 295.899 162.858C295.31 159.958 294.839 157.047 294.45 154.108C294.109 151.487 293.85 148.848 293.77 146.167C290.267 145.627 286.719 145.44 283.18 145.608C279.198 145.759 275.268 146.553 271.54 147.958C268.425 149.16 265.507 150.818 262.879 152.878C262.27 152.427 261.649 151.947 261.02 151.458C263.85 148.965 267.078 146.964 270.569 145.537C274.535 143.926 278.737 142.973 283.009 142.717C286.565 142.519 290.133 142.704 293.649 143.267C293.12 140.517 292.629 137.767 292.2 135.007C291.66 131.577 291.149 128.138 290.709 124.687C290.319 121.227 289.969 117.777 289.749 114.297C289.51 110.826 289.469 107.344 289.629 103.868C289.63 103.85 289.634 103.832 289.641 103.816C289.649 103.8 289.659 103.785 289.672 103.773C289.685 103.761 289.701 103.752 289.717 103.746C289.734 103.739 289.752 103.737 289.77 103.737C289.803 103.741 289.833 103.756 289.857 103.78C289.881 103.804 289.895 103.834 289.899 103.868C290.129 107.318 290.549 110.747 291.04 114.167C291.509 117.587 292.1 120.987 292.729 124.388C293.31 127.787 293.959 131.177 294.649 134.567L296.79 144.687C296.829 144.868 296.833 145.055 296.8 145.237C296.767 145.419 296.698 145.593 296.598 145.748C296.497 145.903 296.367 146.037 296.215 146.142C296.062 146.246 295.89 146.32 295.709 146.358C295.539 146.394 295.363 146.401 295.189 146.377L295.169 146.368C294.819 146.318 294.469 146.277 294.129 146.217C295.052 148.669 295.85 151.165 296.52 153.697C297.299 156.547 297.98 159.427 298.56 162.317C299.04 164.677 299.446 167.044 299.779 169.417Z" fill="black"/>
<path d="M264.319 195.008C265.629 196.338 266.959 197.678 268.299 198.998L241.959 198.928C227.779 198.818 213.589 198.778 199.41 198.588C185.229 198.448 171.049 198.251 156.87 197.998L135.589 197.538L124.959 197.308L114.319 196.997L124.959 196.688L135.589 196.458L156.87 195.997C171.049 195.757 185.229 195.561 199.41 195.407C213.589 195.217 227.779 195.177 241.959 195.067L264.319 195.008Z" fill="black"/>
<path d="M454.689 196.997L444.049 197.308L433.419 197.538L412.139 197.988C397.959 198.228 383.78 198.424 369.6 198.578C355.409 198.768 341.229 198.808 327.049 198.918L325.009 198.928C326.33 197.708 327.649 196.428 328.95 195.088C342.5 195.188 356.04 195.238 369.6 195.418C383.78 195.548 397.959 195.744 412.139 196.008L433.419 196.458L444.05 196.688L454.689 196.997Z" fill="black"/>
<path d="M142.585 80.053C142.017 79.7428 141.226 79.522 140.826 79.8796C140.652 80.1114 140.53 80.3774 140.467 80.66C140.405 80.9426 140.403 81.2352 140.462 81.5186C140.609 82.8211 140.899 84.1036 141.326 85.343C142.115 87.8817 143.127 90.3718 144.128 92.8611C145.18 95.3467 146.154 97.8766 147.184 100.375L150.164 107.916L156.022 123.009C157.025 125.507 158.004 128.019 159.116 130.452C159.634 131.669 160.248 132.844 160.951 133.964C161.282 134.461 161.799 135.078 162.112 134.913C162.347 134.734 162.516 134.481 162.592 134.196C162.706 133.878 162.797 133.552 162.862 133.221C162.877 133.566 162.867 133.911 162.83 134.254C162.816 134.645 162.664 135.019 162.401 135.308C162.307 135.39 162.195 135.448 162.074 135.478C161.953 135.508 161.827 135.509 161.706 135.482C161.498 135.44 161.3 135.359 161.122 135.244C160.812 135.04 160.524 134.804 160.263 134.54C159.315 133.513 158.464 132.401 157.721 131.216C156.262 128.896 154.924 126.501 153.715 124.041C152.463 121.612 151.376 119.115 150.257 116.634C149.179 114.135 148.161 111.614 147.149 109.093C146.19 106.55 145.225 104.011 144.32 101.45C143.449 98.8749 142.539 96.3239 141.758 93.7102C140.916 91.0885 140.256 88.4117 139.785 85.6989C139.539 84.3097 139.467 82.8954 139.57 81.4884C139.61 81.1182 139.695 80.754 139.821 80.4037C139.942 80.0067 140.211 79.6711 140.571 79.4651C140.752 79.3847 140.947 79.3446 141.145 79.3478C141.342 79.351 141.536 79.3973 141.714 79.4835C142.034 79.6229 142.329 79.8154 142.585 80.053Z" fill="black"/>
<path d="M140.01 81.641C143.204 82.0635 146.43 82.1886 149.647 82.0146C152.858 81.9015 156.063 81.6488 159.249 81.2323C165.625 80.4231 171.949 79.2497 178.191 77.7178C184.464 76.3005 190.626 74.433 196.806 72.6163L205.998 69.614C209.05 68.5706 212.085 67.4742 215.162 66.4736C212.223 67.8146 209.24 69.0601 206.275 70.3583L197.199 73.7988C195.667 74.3215 194.132 74.8368 192.591 75.3325C191.047 75.8181 189.524 76.3754 187.958 76.7955C184.837 77.6635 181.73 78.5887 178.563 79.2931C175.415 80.0693 172.223 80.6614 169.034 81.2544C165.825 81.7355 162.617 82.2342 159.376 82.4659C152.929 82.9639 146.331 83.1453 140.01 81.641Z" fill="black"/>
<path d="M225.695 94.9521C222.587 95.6919 219.547 96.6916 216.607 97.9408C215.131 98.5394 213.662 99.1589 212.209 99.811C210.773 100.505 209.31 101.133 207.901 101.88C202.206 104.742 196.665 107.901 191.3 111.342C185.871 114.689 180.677 118.402 175.448 122.069L167.752 127.787C165.209 129.726 162.7 131.71 160.119 133.617C162.461 131.431 164.874 129.322 167.254 127.169L174.699 121.074C175.97 120.096 177.25 119.127 178.537 118.168C179.829 117.216 181.091 116.222 182.423 115.324C185.07 113.505 187.699 111.658 190.437 109.973C193.139 108.232 195.941 106.652 198.731 105.055C201.581 103.563 204.419 102.048 207.37 100.759C213.232 98.1616 219.314 95.7961 225.695 94.9521Z" fill="black"/>
<path d="M212.751 64.9756L226.552 96.9106L239.218 82.6156L231.842 65.5476L212.751 64.9756Z" fill="black"/>
<path d="M344.526 175.018C338.316 186.797 329.676 197.123 319.176 205.312C313.916 209.514 307.894 212.659 301.441 214.574C298.173 215.527 294.758 215.87 291.366 215.588C290.517 215.483 289.675 215.33 288.844 215.128C288.016 214.905 287.205 214.622 286.417 214.282C284.899 213.56 283.451 212.696 282.094 211.702C279.428 209.743 276.87 207.641 274.432 205.404C271.989 203.19 269.587 200.935 267.227 198.638L252.955 185.022C248.136 180.469 243.674 175.552 239.609 170.315C235.503 165.177 231.34 160.085 227.29 154.904L228.386 155.457C225.456 155.342 222.553 154.846 219.75 153.981C216.981 153.149 214.291 152.076 211.708 150.776C209.104 149.475 206.652 147.887 204.4 146.041C203.79 145.532 203.235 144.958 202.747 144.331C202.205 143.585 201.88 142.703 201.807 141.784C201.767 140.866 201.996 139.956 202.466 139.166C202.892 138.431 203.454 137.783 204.122 137.259L203.997 138.803L203.067 137.674C202.786 137.267 202.52 136.845 202.263 136.419C201.758 135.511 201.435 134.513 201.31 133.482C201.21 132.412 201.41 131.336 201.889 130.374C202.361 129.434 203.061 128.626 203.924 128.024L204.359 129.378C203.609 129.328 202.879 129.113 202.222 128.748C201.564 128.384 200.996 127.878 200.556 127.268C200.126 126.69 199.821 126.028 199.661 125.326C199.502 124.623 199.492 123.894 199.632 123.188C199.868 121.81 200.609 120.57 201.71 119.709C202.239 119.292 202.845 118.984 203.494 118.803C204.143 118.621 204.821 118.57 205.489 118.651L205.51 118.654C205.544 118.659 205.576 118.676 205.597 118.703C205.619 118.73 205.63 118.764 205.627 118.798C205.625 118.833 205.609 118.865 205.583 118.888C205.558 118.912 205.524 118.924 205.489 118.923C204.244 118.892 203.036 119.349 202.122 120.196C201.235 121.008 200.682 122.123 200.573 123.322C200.505 123.887 200.555 124.46 200.721 125.005C200.887 125.55 201.165 126.054 201.536 126.486C201.874 126.904 202.297 127.246 202.777 127.489C203.256 127.732 203.782 127.871 204.319 127.897C204.473 127.884 204.627 127.921 204.759 128.003C204.89 128.084 204.993 128.205 205.051 128.348C205.109 128.492 205.12 128.65 205.082 128.8C205.044 128.949 204.959 129.083 204.84 129.182L204.755 129.251C204.157 129.74 203.684 130.365 203.375 131.074C203.081 131.765 202.986 132.526 203.101 133.268C203.249 134.037 203.54 134.77 203.961 135.43C204.195 135.766 204.438 136.097 204.685 136.427L205.521 137.371C205.615 137.477 205.687 137.6 205.733 137.733C205.779 137.866 205.798 138.007 205.79 138.148C205.781 138.289 205.745 138.427 205.684 138.553C205.622 138.68 205.536 138.794 205.43 138.887L205.425 138.892L205.397 138.916C204.977 139.285 204.627 139.725 204.362 140.217C204.12 140.646 204.01 141.137 204.046 141.629C204.114 142.112 204.31 142.568 204.613 142.951C205.012 143.411 205.456 143.831 205.939 144.203C208.1 145.838 210.435 147.229 212.901 148.351C215.361 149.529 217.916 150.497 220.54 151.242C223.125 151.984 225.786 152.425 228.472 152.558L228.479 152.558C228.689 152.567 228.896 152.62 229.084 152.716C229.272 152.811 229.438 152.946 229.569 153.111C233.651 158.267 237.621 163.511 241.648 168.71C245.557 173.941 249.8 178.913 254.351 183.595L267.939 197.92C270.225 200.279 272.564 202.582 274.989 204.789C277.385 207.014 279.942 209.06 282.639 210.909C283.963 211.824 285.382 212.594 286.872 213.205C287.611 213.473 288.369 213.688 289.14 213.849C289.916 213.989 290.699 214.085 291.486 214.137C294.675 214.212 297.852 213.706 300.86 212.643C303.895 211.59 306.827 210.261 309.619 208.673C312.442 207.099 315.156 205.338 317.744 203.404C328.128 195.628 336.896 185.728 344.293 174.877C344.313 174.848 344.342 174.828 344.377 174.82C344.411 174.813 344.446 174.818 344.476 174.837C344.506 174.855 344.528 174.884 344.537 174.917C344.546 174.951 344.542 174.987 344.526 175.018L344.526 175.018Z" fill="black"/>
<path d="M205.5 118.923L205.48 118.925H205.478L205.442 118.92C203.892 118.74 202.384 118.297 200.983 117.611C200.207 117.234 199.556 116.644 199.104 115.91C198.888 115.494 198.767 115.035 198.753 114.566C198.738 114.098 198.828 113.632 199.018 113.203C199.648 111.587 200.886 110.282 202.466 109.567C203.227 109.211 204.031 108.955 204.859 108.806C205.744 108.602 206.665 108.604 207.55 108.81C210.48 109.63 213.416 110.433 216.334 111.293C219.254 112.147 222.177 112.99 225.08 113.901L223.621 115.538C223.05 114.234 222.526 112.908 221.982 111.592L221.961 111.543C221.847 111.268 221.847 110.959 221.961 110.684C222.075 110.41 222.294 110.191 222.568 110.077C222.742 110.006 222.931 109.979 223.118 109.999C225.288 110.234 227.438 110.621 229.553 111.158C230.643 111.423 231.707 111.787 232.732 112.243C233.005 112.369 233.268 112.513 233.52 112.676L233.91 112.939C234.044 113.051 234.172 113.17 234.292 113.296C234.421 113.41 234.529 113.545 234.61 113.696C234.696 113.829 234.776 113.967 234.848 114.108L235.212 114.853C236.955 118.801 238.573 122.728 240.22 126.675C241.045 128.662 241.874 130.574 242.569 132.701L242.672 133.124C242.69 133.232 242.718 133.337 242.757 133.439C242.834 133.663 242.934 133.879 243.053 134.084C243.303 134.524 243.593 134.941 243.918 135.328C244.583 136.133 245.294 136.9 246.048 137.623C249.136 140.523 252.373 143.26 255.746 145.824C259.097 148.459 262.424 151.053 265.885 153.485C269.33 155.918 272.936 158.095 276.607 160.195L279.37 161.759C280.282 162.265 281.194 162.734 282.133 163.193C283.998 164.116 285.915 164.963 287.865 165.716C289.818 166.454 291.784 167.173 293.775 167.721C294.755 167.993 295.75 168.212 296.754 168.375C297.624 168.55 298.52 168.553 299.392 168.385L299.512 168.348C299.501 168.338 299.4 168.39 299.473 168.359L299.635 168.29L299.957 168.153L300.602 167.877L301.868 167.315C302.7 166.93 303.538 166.561 304.34 166.137C305.957 165.33 307.477 164.342 308.87 163.19C311.57 160.665 314.042 157.907 316.258 154.949C316.28 154.923 316.311 154.905 316.346 154.9C316.38 154.896 316.414 154.904 316.443 154.924C316.471 154.944 316.49 154.974 316.497 155.007C316.505 155.041 316.499 155.076 316.481 155.106C315.512 156.706 314.51 158.285 313.444 159.835C312.391 161.423 311.184 162.903 309.841 164.255C308.453 165.597 306.918 166.776 305.263 167.77C304.448 168.275 303.621 168.752 302.774 169.178C302.352 169.393 301.928 169.616 301.51 169.814L300.882 170.118L300.568 170.27L300.411 170.346C300.293 170.402 300.172 170.449 300.047 170.487L300.167 170.45C299.54 170.672 298.88 170.787 298.216 170.79C297.632 170.801 297.049 170.776 296.468 170.716C295.36 170.591 294.259 170.405 293.171 170.158C291.042 169.673 288.946 169.053 286.895 168.303C284.851 167.564 282.842 166.731 280.869 165.805C279.884 165.344 278.908 164.821 277.956 164.293L275.159 162.698C267.741 158.329 260.786 153.217 254.402 147.441C251.156 144.627 248.061 141.642 245.132 138.499C244.395 137.697 243.704 136.854 243.064 135.973C242.735 135.519 242.439 135.043 242.177 134.547C242.038 134.286 241.924 134.012 241.838 133.729C241.789 133.579 241.754 133.425 241.733 133.268C241.707 133.108 241.682 133.034 241.658 132.912C241.031 130.901 240.299 128.924 239.465 126.989C237.841 123.061 236.015 119.219 233.995 115.48L233.604 114.816C233.549 114.723 233.488 114.634 233.422 114.548C233.377 114.463 233.31 114.392 233.228 114.342C233.152 114.287 233.101 114.225 233.013 114.169L232.725 114.01C232.52 113.899 232.307 113.804 232.088 113.724C231.133 113.386 230.151 113.133 229.153 112.967C227.097 112.622 225.023 112.392 222.941 112.276L224.077 110.683C224.666 111.98 225.276 113.268 225.838 114.577C225.929 114.788 225.957 115.02 225.921 115.246C225.885 115.473 225.785 115.684 225.633 115.856C225.481 116.028 225.283 116.153 225.062 116.217C224.842 116.281 224.608 116.281 224.388 116.217L224.379 116.214C221.458 115.36 218.558 114.439 215.655 113.529C212.749 112.624 209.861 111.663 206.969 110.719C206.372 110.557 205.747 110.53 205.139 110.639C204.46 110.718 203.794 110.884 203.159 111.134C201.891 111.589 200.85 112.52 200.258 113.73C200.109 113.982 200.017 114.264 199.99 114.556C199.963 114.847 200.001 115.141 200.101 115.417C200.397 116.019 200.857 116.525 201.427 116.877C202.7 117.659 204.077 118.258 205.517 118.655L205.48 118.65L205.499 118.652C205.534 118.654 205.566 118.67 205.589 118.695C205.613 118.72 205.626 118.753 205.626 118.788C205.626 118.822 205.613 118.855 205.589 118.88C205.566 118.906 205.534 118.921 205.499 118.923L205.5 118.923Z" fill="black"/>
<path d="M204.728 118.193L210.077 119.01L204.681 119.406L204.728 118.193Z" fill="black"/>
<path d="M204.388 128.031L212.376 129.298L204.289 129.241L204.388 128.031Z" fill="black"/>
<path d="M204.923 137.5L210.773 139.732L204.602 138.672L204.923 137.5Z" fill="black"/>
<path d="M199.062 105.744C200.228 105.606 201.406 105.615 202.57 105.771C203.716 105.899 204.849 106.126 205.957 106.448L206.307 106.55L206.382 106.785C206.712 107.729 206.933 108.707 207.041 109.701C206.375 108.955 205.796 108.136 205.315 107.26L205.74 107.596C204.592 107.494 203.454 107.293 202.34 106.995C201.199 106.717 200.098 106.297 199.062 105.744Z" fill="black"/>
<path d="M218.871 96.7222C219.512 97.7563 220.094 98.8159 220.656 99.8842C221.222 100.951 221.755 102.031 222.277 103.117L222.386 103.344L222.266 103.608C221.92 104.369 221.596 105.141 221.231 105.893L221.243 105.345C222.656 108.475 223.954 111.655 225.071 114.913L224.848 114.707C225.915 115.169 226.977 115.647 228.017 116.188C226.864 115.977 225.732 115.705 224.605 115.417L224.473 115.383L224.382 115.211C222.775 112.165 221.349 109.04 220.037 105.867L219.92 105.584L220.049 105.319C220.414 104.567 220.821 103.835 221.205 103.093L221.194 103.584C220.761 102.46 220.34 101.332 219.951 100.188C219.558 99.0472 219.185 97.8975 218.871 96.7222Z" fill="black"/>
<path d="M205.849 107.022C207.042 106.642 208.261 106.348 209.496 106.143C210.719 105.926 211.947 105.755 213.18 105.638C214.412 105.516 215.65 105.452 216.892 105.432C218.144 105.399 219.396 105.457 220.64 105.606C219.447 105.987 218.228 106.282 216.993 106.488C215.769 106.704 214.542 106.875 213.309 106.99C212.076 107.109 210.839 107.175 209.597 107.194C208.345 107.226 207.092 107.169 205.849 107.022Z" fill="black"/>
<path d="M109.36 93.2009C100.286 94.4442 91.1996 95.5334 82.0999 96.4686C73.0029 97.4374 63.894 98.2645 54.7827 99.0642C45.6677 99.8187 36.55 100.543 27.4204 101.126C18.2935 101.743 9.15332 102.204 0 102.508C9.07325 101.262 18.1598 100.172 27.2595 99.2369C36.3565 98.2688 45.4653 97.4416 54.5769 96.6449C63.6921 95.8935 72.8098 95.1695 81.9397 94.5869C91.0664 93.9706 100.206 93.5086 109.36 93.2009Z" fill="black"/>
<path d="M129.153 139.002C123.778 144.04 118.251 148.892 112.672 153.679C107.101 158.478 101.441 163.167 95.7639 167.834C90.0576 172.466 84.332 177.075 78.5171 181.574C72.7119 186.085 66.8518 190.529 60.8394 194.786C66.2122 189.745 71.7378 184.892 77.3181 180.106C82.8887 175.307 88.5488 170.619 94.228 165.954C99.9363 161.324 105.662 156.715 111.477 152.217C117.283 147.706 123.142 143.261 129.153 139.002Z" fill="black"/>
<path d="M87.374 121.698C83.4876 123.197 79.5427 124.463 75.5772 125.648C71.6152 126.847 67.6187 127.908 63.6152 128.943C59.6008 129.934 55.5788 130.895 51.5225 131.719C47.4695 132.558 43.3958 133.313 39.2627 133.834C43.1482 132.333 47.093 131.065 51.0586 129.881C55.0208 128.682 59.0173 127.621 63.0215 126.589C67.0366 125.601 71.0586 124.64 75.1152 123.816C79.1682 122.978 83.2417 122.222 87.374 121.698Z" fill="black"/>
<path d="M75.873 146.896C71.229 150.383 66.458 153.667 61.6425 156.879C56.8349 160.105 51.9521 163.209 47.0549 166.291C42.1335 169.333 37.1963 172.35 32.1838 175.247C27.1797 178.157 22.1298 180.994 16.9521 183.625C21.5947 180.135 26.365 176.85 31.1809 173.638C35.989 170.414 40.8716 167.309 45.7705 164.23C50.6934 161.19 55.6309 158.173 60.6433 155.277C65.6479 152.367 70.6972 149.53 75.873 146.896Z" fill="black"/>
<path d="M335.076 113.442C333.678 116.892 332.257 120.33 330.761 123.735C329.281 127.146 327.81 130.561 326.254 133.937C324.709 137.318 323.209 140.72 321.627 144.084C320.065 147.458 318.409 150.787 316.743 154.111L316.535 153.301C319.438 155.561 322.299 157.876 325.228 160.099C328.147 162.337 331.138 164.475 334.124 166.62C337.125 168.746 340.155 170.831 343.183 172.919C346.216 175.001 349.211 177.135 352.21 179.263L351.079 179.347C354.695 175.517 358.076 171.472 361.205 167.234C364.375 163.025 367.31 158.643 369.997 154.11C371.334 151.843 372.589 149.53 373.761 147.171C374.912 144.804 375.945 142.384 376.919 139.937C377.852 137.473 378.653 134.96 379.317 132.41C379.96 129.845 380.438 127.241 380.749 124.614C380.75 124.602 380.754 124.59 380.76 124.579C380.766 124.568 380.774 124.558 380.784 124.55C380.793 124.542 380.804 124.537 380.816 124.533C380.828 124.529 380.841 124.528 380.853 124.529C380.877 124.532 380.899 124.544 380.914 124.562C380.93 124.579 380.939 124.602 380.939 124.626C380.867 127.297 380.596 129.958 380.128 132.588C379.607 135.215 378.938 137.811 378.124 140.363C376.413 145.444 374.237 150.357 371.626 155.04C369.01 159.713 366.068 164.195 362.822 168.454C359.578 172.716 356.066 176.768 352.308 180.585L352.302 180.59C352.156 180.738 351.961 180.827 351.754 180.841C351.547 180.856 351.342 180.795 351.176 180.669C348.251 178.441 345.32 176.22 342.429 173.946C339.532 171.679 336.637 169.409 333.714 167.178C330.775 164.969 327.842 162.751 324.836 160.633C321.84 158.5 318.777 156.46 315.754 154.364C315.633 154.28 315.545 154.157 315.505 154.016C315.464 153.874 315.474 153.723 315.532 153.588L315.547 153.554C317.022 150.14 318.506 146.731 320.085 143.365C321.644 139.991 323.285 136.654 324.88 133.297C326.465 129.935 328.135 126.612 329.795 123.284C331.441 119.95 333.16 116.65 334.903 113.361C334.915 113.34 334.934 113.324 334.957 113.316C334.98 113.308 335.006 113.309 335.028 113.32C335.05 113.33 335.067 113.348 335.076 113.371C335.085 113.394 335.085 113.419 335.076 113.442L335.076 113.442Z" fill="black"/>
<path d="M282.711 47.5765C283.107 47.5628 283.482 47.3958 283.758 47.1107C284.033 46.8256 284.187 46.4447 284.187 46.0483C284.187 45.6519 284.033 45.271 283.758 44.9859C283.482 44.7008 283.107 44.5337 282.711 44.52C282.314 44.5337 281.939 44.7008 281.664 44.9859C281.388 45.271 281.234 45.6519 281.234 46.0483C281.234 46.4447 281.388 46.8256 281.664 47.1107C281.939 47.3958 282.314 47.5628 282.711 47.5765Z" fill="black"/>
</svg>
