<svg width="26" height="26" viewBox="0 0 26 26" fill="none" xmlns="http://www.w3.org/2000/svg">
<path d="M17.3406 17.1785C20.1073 12.8371 19.7595 13.3787 19.8392 13.2655C20.8465 11.8448 21.3789 10.1726 21.3789 8.42969C21.3789 3.80758 17.6282 0 13 0C8.38693 0 4.62109 3.80006 4.62109 8.42969C4.62109 10.1715 5.16466 11.8874 6.20496 13.3273L8.65932 17.1786C6.0352 17.5818 1.57422 18.7836 1.57422 21.4297C1.57422 22.3943 2.2038 23.7689 5.20315 24.8401C7.29747 25.5881 10.0664 26 13 26C18.4856 26 24.4258 24.4526 24.4258 21.4297C24.4258 18.7831 19.97 17.5827 17.3406 17.1785ZM7.47749 12.4894C7.46911 12.4763 7.46037 12.4635 7.45123 12.4509C6.58557 11.26 6.14453 9.84857 6.14453 8.42969C6.14453 4.62018 9.21202 1.52344 13 1.52344C16.7801 1.52344 19.8555 4.62155 19.8555 8.42969C19.8555 9.85085 19.4228 11.2144 18.6039 12.3739C18.5305 12.4707 18.9134 11.876 13 21.1549L7.47749 12.4894ZM13 24.4766C7.00812 24.4766 3.09766 22.7153 3.09766 21.4297C3.09766 20.5656 5.10697 19.1448 9.55947 18.591L12.3576 22.9817C12.4975 23.2011 12.7397 23.334 12.9999 23.334C13.2602 23.334 13.5025 23.2011 13.6423 22.9817L16.4404 18.591C20.893 19.1448 22.9023 20.5656 22.9023 21.4297C22.9023 22.7044 19.0271 24.4766 13 24.4766Z" fill="black"/>
<path d="M13 4.62109C10.8999 4.62109 9.19141 6.32963 9.19141 8.42969C9.19141 10.5297 10.8999 12.2383 13 12.2383C15.1001 12.2383 16.8086 10.5297 16.8086 8.42969C16.8086 6.32963 15.1001 4.62109 13 4.62109ZM13 10.7148C11.74 10.7148 10.7148 9.68972 10.7148 8.42969C10.7148 7.16965 11.74 6.14453 13 6.14453C14.26 6.14453 15.2852 7.16965 15.2852 8.42969C15.2852 9.68972 14.26 10.7148 13 10.7148Z" fill="black"/>
</svg>
